<svg width="138" height="48" viewBox="0 0 138 48" fill="none" xmlns="http://www.w3.org/2000/svg">
<path d="M56.1834 27.38C54.1567 27.38 52.6241 26.81 51.5854 25.67C50.5467 24.5047 50.0274 22.8453 50.0274 20.692V19.172H53.9794V20.996C53.9794 22.7187 54.7014 23.58 56.1454 23.58C56.8547 23.58 57.3867 23.3773 57.7414 22.972C58.1214 22.5413 58.3114 21.8573 58.3114 20.92C58.3114 19.8053 58.0581 18.83 57.5514 17.994C57.0447 17.1327 56.1074 16.1067 54.7394 14.916C53.0167 13.396 51.8134 12.028 51.1294 10.812C50.4454 9.57067 50.1034 8.17733 50.1034 6.632C50.1034 4.52933 50.6354 2.908 51.6994 1.768C52.7634 0.602665 54.3087 0.0199986 56.3354 0.0199986C58.3367 0.0199986 59.8441 0.602665 60.8574 1.768C61.8961 2.908 62.4154 4.55467 62.4154 6.708V7.81H58.4634V6.442C58.4634 5.53 58.2861 4.87133 57.9314 4.466C57.5767 4.03533 57.0574 3.82 56.3734 3.82C54.9801 3.82 54.2834 4.66867 54.2834 6.366C54.2834 7.32867 54.5367 8.228 55.0434 9.064C55.5754 9.9 56.5254 10.9133 57.8934 12.104C59.6414 13.624 60.8447 15.0047 61.5034 16.246C62.1621 17.4873 62.4914 18.944 62.4914 20.616C62.4914 22.7947 61.9467 24.4667 60.8574 25.632C59.7934 26.7973 58.2354 27.38 56.1834 27.38ZM64.8881 0.399998H76.2881V4.2H69.0681V11.23H74.8061V15.03H69.0681V23.2H76.2881V27H64.8881V0.399998ZM84.6208 27.38C82.5941 27.38 81.0488 26.81 79.9848 25.67C78.9208 24.5047 78.3888 22.8453 78.3888 20.692V6.708C78.3888 4.55467 78.9208 2.908 79.9848 1.768C81.0488 0.602665 82.5941 0.0199986 84.6208 0.0199986C86.6474 0.0199986 88.1928 0.602665 89.2568 1.768C90.3208 2.908 90.8528 4.55467 90.8528 6.708V8.988H86.9008V6.442C86.9008 4.694 86.1788 3.82 84.7348 3.82C83.2908 3.82 82.5688 4.694 82.5688 6.442V20.996C82.5688 22.7187 83.2908 23.58 84.7348 23.58C86.1788 23.58 86.9008 22.7187 86.9008 20.996V15.79H84.8108V11.99H90.8528V20.692C90.8528 22.8453 90.3208 24.5047 89.2568 25.67C88.1928 26.81 86.6474 27.38 84.6208 27.38ZM99.6165 27.38C97.5898 27.38 96.0445 26.81 94.9805 25.67C93.9165 24.5047 93.3845 22.8453 93.3845 20.692V0.399998H97.5645V20.996C97.5645 21.908 97.7418 22.5667 98.0965 22.972C98.4765 23.3773 99.0085 23.58 99.6925 23.58C100.377 23.58 100.896 23.3773 101.251 22.972C101.631 22.5667 101.821 21.908 101.821 20.996V0.399998H105.849V20.692C105.849 22.8453 105.317 24.5047 104.253 25.67C103.189 26.81 101.643 27.38 99.6165 27.38ZM108.826 0.399998H115.02C117.173 0.399998 118.744 0.906665 119.732 1.92C120.72 2.908 121.214 4.44066 121.214 6.518V8.152C121.214 10.9133 120.302 12.6613 118.478 13.396V13.472C119.491 13.776 120.2 14.3967 120.606 15.334C121.036 16.2713 121.252 17.5253 121.252 19.096V23.77C121.252 24.53 121.277 25.1507 121.328 25.632C121.378 26.088 121.505 26.544 121.708 27H117.452C117.3 26.5693 117.198 26.164 117.148 25.784C117.097 25.404 117.072 24.72 117.072 23.732V18.868C117.072 17.652 116.869 16.8033 116.464 16.322C116.084 15.8407 115.412 15.6 114.45 15.6H113.006V27H108.826V0.399998ZM114.526 11.8C115.362 11.8 115.982 11.5847 116.388 11.154C116.818 10.7233 117.034 10.0013 117.034 8.988V6.936C117.034 5.97333 116.856 5.27667 116.502 4.846C116.172 4.41533 115.64 4.2 114.906 4.2H113.006V11.8H114.526ZM130.194 27.38C128.142 27.38 126.571 26.7973 125.482 25.632C124.392 24.4667 123.848 22.82 123.848 20.692V6.708C123.848 4.58 124.392 2.93333 125.482 1.768C126.571 0.602665 128.142 0.0199986 130.194 0.0199986C132.246 0.0199986 133.816 0.602665 134.906 1.768C135.995 2.93333 136.54 4.58 136.54 6.708V20.692C136.54 22.82 135.995 24.4667 134.906 25.632C133.816 26.7973 132.246 27.38 130.194 27.38ZM130.194 23.58C131.638 23.58 132.36 22.706 132.36 20.958V6.442C132.36 4.694 131.638 3.82 130.194 3.82C128.75 3.82 128.028 4.694 128.028 6.442V20.958C128.028 22.706 128.75 23.58 130.194 23.58Z" fill="#2C3E50"/>
<path d="M52.4879 45.175C51.5662 45.175 50.8604 44.9125 50.3704 44.3875C49.892 43.8625 49.6529 43.1217 49.6529 42.165V35.585C49.6529 34.6283 49.892 33.8875 50.3704 33.3625C50.8604 32.8375 51.5662 32.575 52.4879 32.575C53.4095 32.575 54.1095 32.8375 54.5879 33.3625C55.0779 33.8875 55.3229 34.6283 55.3229 35.585V36.88H53.5029V35.4625C53.5029 34.7042 53.182 34.325 52.5404 34.325C51.8987 34.325 51.5779 34.7042 51.5779 35.4625V42.305C51.5779 43.0517 51.8987 43.425 52.5404 43.425C53.182 43.425 53.5029 43.0517 53.5029 42.305V40.4325H55.3229V42.165C55.3229 43.1217 55.0779 43.8625 54.5879 44.3875C54.1095 44.9125 53.4095 45.175 52.4879 45.175ZM56.4746 32.75H61.7246V34.5H58.3996V37.7375H61.0421V39.4875H58.3996V43.25H61.7246V45H56.4746V32.75ZM62.832 32.75H65.6845C66.6762 32.75 67.3995 32.9833 67.8545 33.45C68.3095 33.905 68.537 34.6108 68.537 35.5675V36.32C68.537 37.5917 68.117 38.3967 67.277 38.735V38.77C67.7437 38.91 68.0703 39.1958 68.257 39.6275C68.4553 40.0592 68.5545 40.6367 68.5545 41.36V43.5125C68.5545 43.8625 68.5662 44.1483 68.5895 44.37C68.6128 44.58 68.6712 44.79 68.7645 45H66.8045C66.7345 44.8017 66.6878 44.615 66.6645 44.44C66.6412 44.265 66.6295 43.95 66.6295 43.495V41.255C66.6295 40.695 66.5362 40.3042 66.3495 40.0825C66.1745 39.8608 65.8653 39.75 65.422 39.75H64.757V45H62.832V32.75ZM65.457 38C65.842 38 66.1278 37.9008 66.3145 37.7025C66.5128 37.5042 66.612 37.1717 66.612 36.705V35.76C66.612 35.3167 66.5303 34.9958 66.367 34.7975C66.2153 34.5992 65.9703 34.5 65.632 34.5H64.757V38H65.457ZM71.3609 34.5H69.3484V32.75H75.2984V34.5H73.2859V45H71.3609V34.5ZM76.2304 32.75H78.1554V45H76.2304V32.75ZM79.5971 32.75H84.6896V34.5H81.5221V37.9125H84.0071V39.6625H81.5221V45H79.5971V32.75ZM85.6128 32.75H87.5378V45H85.6128V32.75ZM91.692 45.175C90.7703 45.175 90.0645 44.9125 89.5745 44.3875C89.0961 43.8625 88.857 43.1217 88.857 42.165V35.585C88.857 34.6283 89.0961 33.8875 89.5745 33.3625C90.0645 32.8375 90.7703 32.575 91.692 32.575C92.6136 32.575 93.3136 32.8375 93.792 33.3625C94.282 33.8875 94.527 34.6283 94.527 35.585V36.88H92.707V35.4625C92.707 34.7042 92.3861 34.325 91.7445 34.325C91.1028 34.325 90.782 34.7042 90.782 35.4625V42.305C90.782 43.0517 91.1028 43.425 91.7445 43.425C92.3861 43.425 92.707 43.0517 92.707 42.305V40.4325H94.527V42.165C94.527 43.1217 94.282 43.8625 93.792 44.3875C93.3136 44.9125 92.6136 45.175 91.692 45.175ZM97.1662 32.75H99.7737L101.769 45H99.8437L99.4937 42.5675V42.6025H97.3062L96.9562 45H95.1712L97.1662 32.75ZM99.2662 40.94L98.4087 34.885H98.3737L97.5337 40.94H99.2662ZM102.703 32.75H105.643C106.599 32.75 107.317 33.0067 107.795 33.52C108.273 34.0333 108.513 34.7858 108.513 35.7775V41.9725C108.513 42.9642 108.273 43.7167 107.795 44.23C107.317 44.7433 106.599 45 105.643 45H102.703V32.75ZM105.608 43.25C105.923 43.25 106.162 43.1567 106.325 42.97C106.5 42.7833 106.588 42.48 106.588 42.06V35.69C106.588 35.27 106.5 34.9667 106.325 34.78C106.162 34.5933 105.923 34.5 105.608 34.5H104.628V43.25H105.608ZM112.594 45.175C111.649 45.175 110.926 44.9067 110.424 44.37C109.923 43.8333 109.672 43.075 109.672 42.095V35.655C109.672 34.675 109.923 33.9167 110.424 33.38C110.926 32.8433 111.649 32.575 112.594 32.575C113.539 32.575 114.263 32.8433 114.764 33.38C115.266 33.9167 115.517 34.675 115.517 35.655V42.095C115.517 43.075 115.266 43.8333 114.764 44.37C114.263 44.9067 113.539 45.175 112.594 45.175ZM112.594 43.425C113.259 43.425 113.592 43.0225 113.592 42.2175V35.5325C113.592 34.7275 113.259 34.325 112.594 34.325C111.929 34.325 111.597 34.7275 111.597 35.5325V42.2175C111.597 43.0225 111.929 43.425 112.594 43.425ZM122.124 45.175C121.191 45.175 120.485 44.9125 120.007 44.3875C119.528 43.8508 119.289 43.0867 119.289 42.095V41.395H121.109V42.235C121.109 43.0283 121.442 43.425 122.107 43.425C122.433 43.425 122.678 43.3317 122.842 43.145C123.017 42.9467 123.104 42.6317 123.104 42.2C123.104 41.6867 122.987 41.2375 122.754 40.8525C122.521 40.4558 122.089 39.9833 121.459 39.435C120.666 38.735 120.112 38.105 119.797 37.545C119.482 36.9733 119.324 36.3317 119.324 35.62C119.324 34.6517 119.569 33.905 120.059 33.38C120.549 32.8433 121.261 32.575 122.194 32.575C123.116 32.575 123.81 32.8433 124.277 33.38C124.755 33.905 124.994 34.6633 124.994 35.655V36.1625H123.174V35.5325C123.174 35.1125 123.092 34.8092 122.929 34.6225C122.766 34.4242 122.527 34.325 122.212 34.325C121.57 34.325 121.249 34.7158 121.249 35.4975C121.249 35.9408 121.366 36.355 121.599 36.74C121.844 37.125 122.282 37.5917 122.912 38.14C123.717 38.84 124.271 39.4758 124.574 40.0475C124.877 40.6192 125.029 41.29 125.029 42.06C125.029 43.0633 124.778 43.8333 124.277 44.37C123.787 44.9067 123.069 45.175 122.124 45.175ZM128.635 45.175C127.702 45.175 126.996 44.9125 126.518 44.3875C126.039 43.8508 125.8 43.0867 125.8 42.095V41.395H127.62V42.235C127.62 43.0283 127.953 43.425 128.618 43.425C128.944 43.425 129.189 43.3317 129.353 43.145C129.528 42.9467 129.615 42.6317 129.615 42.2C129.615 41.6867 129.499 41.2375 129.265 40.8525C129.032 40.4558 128.6 39.9833 127.97 39.435C127.177 38.735 126.623 38.105 126.308 37.545C125.993 36.9733 125.835 36.3317 125.835 35.62C125.835 34.6517 126.08 33.905 126.57 33.38C127.06 32.8433 127.772 32.575 128.705 32.575C129.627 32.575 130.321 32.8433 130.788 33.38C131.266 33.905 131.505 34.6633 131.505 35.655V36.1625H129.685V35.5325C129.685 35.1125 129.604 34.8092 129.44 34.6225C129.277 34.4242 129.038 34.325 128.723 34.325C128.081 34.325 127.76 34.7158 127.76 35.4975C127.76 35.9408 127.877 36.355 128.11 36.74C128.355 37.125 128.793 37.5917 129.423 38.14C130.228 38.84 130.782 39.4758 131.085 40.0475C131.389 40.6192 131.54 41.29 131.54 42.06C131.54 43.0633 131.289 43.8333 130.788 44.37C130.298 44.9067 129.58 45.175 128.635 45.175ZM132.644 32.75H134.569V43.25H137.737V45H132.644V32.75Z" fill="#2C3E50"/>
<path d="M14.6795 5.3725C12.0604 6.09433 9.45904 6.87922 6.87776 7.7265C6.64206 7.80285 6.43254 7.94387 6.27307 8.13348C6.11359 8.3231 6.01058 8.5537 5.97577 8.799C4.45226 20.2308 7.97226 28.5715 12.1715 34.066C13.9494 36.4156 16.0694 38.4855 18.4608 40.2067C19.4123 40.8777 20.2538 41.3617 20.9165 41.6725C21.2465 41.8292 21.516 41.9337 21.7223 41.997C21.8125 42.0286 21.9055 42.0517 22 42.0657C22.0934 42.0506 22.1854 42.0276 22.275 41.997C22.484 41.9337 22.7535 41.8292 23.0835 41.6725C23.7435 41.3617 24.5878 40.875 25.5393 40.2067C27.9306 38.4854 30.0506 36.4155 31.8285 34.066C36.0278 28.5743 39.5478 20.2308 38.0243 8.799C37.9898 8.55358 37.8869 8.32284 37.7273 8.13317C37.5678 7.9435 37.3581 7.80257 37.1223 7.7265C35.332 7.14075 32.3098 6.1865 29.3205 5.37525C26.268 4.5475 23.4603 3.93425 22 3.93425C20.5425 3.93425 17.732 4.5475 14.6795 5.37525V5.3725ZM13.948 2.54C16.9318 1.72875 20.1025 1 22 1C23.8975 1 27.0683 1.72875 30.052 2.54C33.1045 3.365 36.1818 4.34125 37.9913 4.9325C38.7478 5.18234 39.4185 5.64053 39.9264 6.25443C40.4342 6.86833 40.7586 7.61303 40.8623 8.403C42.5013 20.7148 38.698 29.8393 34.0835 35.8755C32.1267 38.4577 29.7935 40.7316 27.1618 42.6213C26.2518 43.2751 25.2876 43.8501 24.2798 44.34C23.5098 44.703 22.682 45 22 45C21.318 45 20.493 44.703 19.7203 44.34C18.7124 43.8502 17.7483 43.2752 16.8383 42.6213C14.2066 40.7315 11.8734 38.4576 9.91651 35.8755C5.30201 29.8393 1.49876 20.7148 3.13776 8.403C3.2414 7.61303 3.56578 6.86833 4.07364 6.25443C4.58149 5.64053 5.25222 5.18234 6.00876 4.9325C8.63554 4.07123 11.2827 3.27349 13.948 2.54V2.54Z" fill="#95C11F"/>
<path d="M26.125 18.875C26.1254 19.7284 25.8612 20.561 25.3687 21.2579C24.8761 21.9548 24.1796 22.4818 23.375 22.7663L24.4338 28.2388C24.4723 28.4378 24.4663 28.6429 24.4163 28.8394C24.3662 29.0359 24.2734 29.2188 24.1443 29.3752C24.0153 29.5316 23.8533 29.6575 23.6699 29.7439C23.4865 29.8303 23.2862 29.8751 23.0835 29.875H20.9165C20.714 29.8747 20.5141 29.8296 20.331 29.743C20.148 29.6564 19.9863 29.5305 19.8575 29.3741C19.7288 29.2178 19.6362 29.035 19.5863 28.8387C19.5364 28.6425 19.5305 28.4376 19.569 28.2388L20.625 22.7663C19.9121 22.5142 19.2822 22.0711 18.8041 21.4852C18.326 20.8994 18.0182 20.1934 17.9142 19.4444C17.8102 18.6955 17.9141 17.9323 18.2145 17.2384C18.5149 16.5445 19.0003 15.9465 19.6175 15.5098C20.2348 15.073 20.9603 14.8144 21.7146 14.7621C22.469 14.7098 23.2232 14.8658 23.8948 15.2131C24.5665 15.5605 25.1297 16.0858 25.5231 16.7316C25.9164 17.3774 26.1246 18.1189 26.125 18.875V18.875Z" fill="#95C11F"/>
</svg>
