<svg width="35" height="35" viewBox="0 0 35 35" fill="none" xmlns="http://www.w3.org/2000/svg">
<path d="M29.5312 0H5.46875C2.44844 0 0 2.44844 0 5.46875V29.5312C0 32.5516 2.44844 35 5.46875 35H29.5312C32.5516 35 35 32.5516 35 29.5312V5.46875C35 2.44844 32.5516 0 29.5312 0Z" fill="#1877F2"/>
<path d="M26.25 17.5C26.25 12.6875 22.3125 8.75 17.5 8.75C12.6875 8.75 8.75 12.6875 8.75 17.5C8.75 21.875 11.9219 25.4844 16.0781 26.1406V20.0156H13.8906V17.5H16.0781V15.5312C16.0781 13.3438 17.3906 12.1406 19.3594 12.1406C20.3438 12.1406 21.3281 12.3594 21.3281 12.3594V14.5469H20.2344C19.1406 14.5469 18.8125 15.2031 18.8125 15.8594V17.5H21.2188L20.7812 20.0156H18.7031V26.25C23.0781 25.5938 26.25 21.875 26.25 17.5Z" fill="white"/>
</svg>
