<svg width="35" height="35" viewBox="0 0 35 35" fill="none" xmlns="http://www.w3.org/2000/svg">
<path d="M29.5312 0H5.46875C2.44844 0 0 2.44844 0 5.46875V29.5312C0 32.5516 2.44844 35 5.46875 35H29.5312C32.5516 35 35 32.5516 35 29.5312V5.46875C35 2.44844 32.5516 0 29.5312 0Z" fill="#2867B2"/>
<path d="M12.6875 26.25H8.96875V14.5469H12.6875V26.25ZM10.8281 12.9062C9.625 12.9062 8.75 12.0312 8.75 10.8281C8.75 9.625 9.73438 8.75 10.8281 8.75C12.0313 8.75 12.9063 9.625 12.9063 10.8281C12.9063 12.0312 12.0313 12.9062 10.8281 12.9062ZM26.25 26.25H22.5313V19.9063C22.5313 18.0469 21.7656 17.5 20.6719 17.5C19.5781 17.5 18.4844 18.375 18.4844 20.0156V26.25H14.7656V14.5469H18.2656V16.1875C18.5937 15.4219 19.9062 14.2188 21.7656 14.2188C23.8437 14.2188 26.0313 15.4219 26.0313 19.0312V26.25H26.25Z" fill="white"/>
</svg>
