<svg width="35" height="35" viewBox="0 0 35 35" fill="none" xmlns="http://www.w3.org/2000/svg">
<path d="M29.5312 0H5.46875C2.44844 0 0 2.44844 0 5.46875V29.5312C0 32.5516 2.44844 35 5.46875 35H29.5312C32.5516 35 35 32.5516 35 29.5312V5.46875C35 2.44844 32.5516 0 29.5312 0Z" fill="#FF0000"/>
<path d="M25.8125 13.2344C25.5938 12.4688 25.0469 11.9219 24.2813 11.7031C22.9688 11.375 17.3906 11.375 17.3906 11.375C17.3906 11.375 11.9219 11.375 10.5 11.7031C9.73438 11.9219 9.1875 12.4688 8.96875 13.2344C8.75 14.6563 8.75 17.5 8.75 17.5C8.75 17.5 8.75 20.3437 9.07813 21.7656C9.29688 22.5312 9.84375 23.0781 10.6094 23.2969C11.9219 23.625 17.5 23.625 17.5 23.625C17.5 23.625 22.9687 23.625 24.3906 23.2969C25.1562 23.0781 25.7031 22.5312 25.9219 21.7656C26.25 20.3437 26.25 17.5 26.25 17.5C26.25 17.5 26.25 14.6563 25.8125 13.2344ZM15.75 20.125V14.875L20.3438 17.5L15.75 20.125Z" fill="white"/>
</svg>
