<svg width="60" height="60" viewBox="0 0 60 60" fill="none" xmlns="http://www.w3.org/2000/svg">
<path d="M45.476 44.6409C43.3048 44.6409 41.2698 43.8058 39.7327 42.2687L31.4533 33.9893C30.8842 33.4202 29.8512 33.4202 29.2821 33.9893L20.9687 42.3027C19.4316 43.8398 17.3966 44.6749 15.2254 44.6749H13.5894L24.1079 55.1934C27.3801 58.4656 32.7213 58.4656 35.9935 55.1934L46.543 44.6439L45.476 44.6409Z" fill="#94A3B8"/>
<path d="M15.1916 15.3246C17.3627 15.3246 19.3978 16.1596 20.9349 17.6967L29.2483 26.0101C29.8483 26.6101 30.8163 26.6101 31.4194 26.0101L39.7328 17.7308C41.2699 16.1936 43.305 15.3586 45.4761 15.3586H46.4782L35.9287 4.8091C32.6565 1.53694 27.3153 1.53694 24.0431 4.8091L13.5215 15.3246H15.1916Z" fill="#94A3B8"/>
<path d="M55.1905 24.0739L48.8132 17.6966C48.6802 17.7647 48.5132 17.7956 48.3462 17.7956H45.4421C43.939 17.7956 42.4699 18.3956 41.4369 19.4657L33.1545 27.7451C32.3875 28.5121 31.3514 28.9141 30.3493 28.9141C29.3132 28.9141 28.3112 28.5121 27.5442 27.7451L19.2308 19.4317C18.1637 18.3647 16.6947 17.7616 15.2256 17.7616H11.6534C11.4864 17.7616 11.3534 17.7275 11.2204 17.6626L4.8091 24.0739C1.53694 27.3461 1.53694 32.6873 4.8091 35.9595L11.1864 42.3368C11.3194 42.2688 11.4524 42.2379 11.6194 42.2379H15.1916C16.6947 42.2379 18.1637 41.6379 19.1967 40.5678L27.5101 32.2544C29.0132 30.7513 31.6514 30.7513 33.1514 32.2544L41.4308 40.5337C42.4978 41.6007 43.9668 42.2038 45.4359 42.2038H48.34C48.507 42.2038 48.64 42.2379 48.807 42.3028L55.1844 35.9255C58.4627 32.6533 58.4627 27.3461 55.1905 24.0739Z" fill="#94A3B8"/>
</svg>
