<svg xmlns="http://www.w3.org/2000/svg" fill="none" width="192" height="36" viewBox="0 0 192 36"><path d="M9.336 23.316C9.645 22.566 23.4-2.466 23.4 11.155c0 4.295-1.338 9.09-2.087 13.315.793-1.862 15.708-27.409 15.708-13.232 0 4.6-1.72 9.104-1.94 13.677-.484 10.618 21.44-18 23.173-20.07-7.405 10.897-19.69 26.213-23.158 26.296-8.978.181.706-19-2.88-19-2.66.006-11.888 15.169-11.888 18.214 0 .083.03.22.074.43-.176.042-.47.14-.91.278-.177.07-.457.097-.839.097-1.146-.001-1.72-.612-1.72-1.85.001-5.114 2.602-10.493 2.602-15.69 0-.932-.309-1.405-.926-1.405-2.88 0-9.772 14.483-9.772 17.568 0 .291.103.583.294.86-1.63.793-3.82.849-3.82-1.834 0-4.433 3.071-14.857.31-18.444 1.648-.667 4.691-2 4.691 1.293 0 3.822-.633 7.853-.97 11.66Zm173.312 7.598v-14.76h4.042v14.76h-4.042Zm-17.176 0v-2.61h8.403c.52 0 1.057-.024 1.568-.104.362-.058.737-.147 1.056-.294.223-.105.43-.241.56-.421a.942.942 0 0 0 .18-.58.856.856 0 0 0-.138-.466 1.54 1.54 0 0 0-.449-.431c-.285-.191-.657-.354-.99-.488a21.634 21.634 0 0 0-1.698-.587l-3.879-1.203a14.567 14.567 0 0 1-1.939-.736 6.832 6.832 0 0 1-1.41-.869 3.48 3.48 0 0 1-.873-1.028 2.49 2.49 0 0 1-.296-1.179c0-.568.166-1.109.54-1.597.385-.499.945-.893 1.581-1.197.735-.353 1.557-.58 2.395-.73.998-.173 2.036-.235 3.057-.235h7.177v2.59h-8.194a5.72 5.72 0 0 0-1.077.09c-.27.053-.536.134-.77.255-.169.091-.333.203-.437.345a.68.68 0 0 0-.132.415c.002.14.04.273.121.399.093.142.236.264.394.367.29.187.735.36 1.072.488.681.26 1.385.49 2.09.708l3.377 1.04c.691.21 1.372.46 2.006.763.525.25 1.032.544 1.455.895.777.644 1.191 1.413 1.191 2.3 0 .62-.17 1.217-.564 1.758-.398.549-.98.978-1.66 1.31-.782.385-1.67.629-2.57.784-1.092.19-2.232.254-3.35.254h-7.8Zm-5.693 0v-14.76h4.04v14.76h-4.04Zm-10.493-3.546 5.62-11.028.095-.186h4.11l-.263.51-6.366 12.445a5.02 5.02 0 0 1-.585.904 3.136 3.136 0 0 1-.7.643 2.92 2.92 0 0 1-.875.377 4.199 4.199 0 0 1-1.037.122c-.35 0-.7-.036-1.035-.121a2.896 2.896 0 0 1-.87-.374 3.15 3.15 0 0 1-.697-.64 5.41 5.41 0 0 1-.594-.91l-6.629-12.956h4.128l.12.236 5.58 10.978Zm-14.53 3.546v-14.76h4.04v14.76h-4.04Zm-11.8-12.29h-5.933v-2.47h15.911v2.47H127v12.29h-4.042v-12.29Zm-15.964-2.47h4.04v9.796c.001.366.07.736.26 1.072.17.302.43.554.76.76.377.234.818.39 1.28.49.592.13 1.224.173 1.836.173h4.685v2.47h-4.155c-1.244 0-2.526-.078-3.735-.315-.978-.192-1.936-.496-2.744-.975-.745-.442-1.307-1.005-1.678-1.677-.4-.724-.549-1.517-.549-2.302v-9.492Zm-15.073 0v9.094c0 .924.251 1.87 1.13 2.534.39.298.862.505 1.38.64.63.166 1.312.223 1.974.223.662 0 1.342-.057 1.972-.222.518-.136.991-.344 1.387-.642.388-.292.665-.646.847-1.043.22-.473.295-.988.295-1.49v-9.094h4.042v9.185c0 .82-.172 1.63-.592 2.385-.404.728-1.01 1.347-1.78 1.863-.8.538-1.722.927-2.726 1.18-1.11.28-2.28.388-3.444.388-1.162 0-2.334-.108-3.443-.387-1.005-.253-1.926-.642-2.728-1.181-.767-.516-1.37-1.136-1.772-1.862-.417-.756-.588-1.567-.588-2.386v-9.191h4.042ZM73.481 26.732l4.691-9.124a2.832 2.832 0 0 1 1.147-1.206 3.2 3.2 0 0 1 .836-.323c.31-.073.631-.106.954-.106.364 0 .728.037 1.071.128.328.086.623.22.88.4.26.186.469.4.626.647.17.262.28.547.356.84l2.967 12.58.083.35h-3.92l-.072-.306-2.364-10.273-4.683 9.083a4 4 0 0 1-.455.703 2.664 2.664 0 0 1-.563.525 2.41 2.41 0 0 1-.715.323 3.137 3.137 0 0 1-.832.107c-.286 0-.572-.03-.844-.1a2.4 2.4 0 0 1-.72-.313 2.542 2.542 0 0 1-.567-.521 4.098 4.098 0 0 1-.468-.724l-4.682-9.08-2.402 10.577H59.85L62.9 17.98a2.8 2.8 0 0 1 .355-.837c.157-.243.363-.461.623-.643.257-.18.553-.313.88-.4a4.193 4.193 0 0 1 1.07-.127c.324 0 .646.033.955.106.3.071.58.18.835.323a2.763 2.763 0 0 1 1.136 1.205l4.732 9.125Z" fill="#003CE5" fill-rule="evenodd" clip-rule="evenodd"/></svg>