<svg xmlns="http://www.w3.org/2000/svg" fill="none" width="308" height="58" viewBox="0 0 308 58"><path d="M14.977 37.565c.495-1.209 22.558-41.538 22.558-19.593 0 6.92-2.145 14.645-3.347 21.452 1.273-3 25.199-44.159 25.199-21.318 0 7.412-2.758 14.667-3.112 22.034-.778 17.108 34.392-28.998 37.173-32.335-11.88 17.556-31.586 42.233-37.15 42.367-14.402.292 1.132-30.61-4.62-30.61-4.266 0-19.07 24.43-19.07 29.334 0 .134.048.358.12.694-.284.067-.756.224-1.463.448-.283.112-.73.157-1.344.157-1.838 0-2.758-.986-2.758-2.979 0-8.24 4.173-16.906 4.173-25.28 0-1.501-.495-2.262-1.485-2.262-4.62 0-15.676 23.333-15.676 28.304 0 .47.165.94.472 1.388-2.617 1.277-6.13 1.366-6.13-2.956 0-7.143 4.928-23.937.496-29.715 2.64-1.075 7.52-3.224 7.52 2.083 0 6.158-1.014 12.652-1.556 18.787Zm278.021 12.241v-23.78h6.484v23.78h-6.484Zm-27.553 0v-4.204h13.48c.835 0 1.695-.04 2.515-.17.58-.091 1.182-.235 1.695-.473.364-.168.688-.388.902-.678.211-.285.29-.605.29-.933 0-.264-.07-.515-.22-.752-.171-.27-.43-.5-.72-.694-.457-.31-1.053-.57-1.587-.787a35.56 35.56 0 0 0-2.724-.946l-6.223-1.948c-1.067-.332-2.13-.716-3.11-1.186-.818-.39-1.6-.851-2.262-1.4-.586-.484-1.072-1.036-1.401-1.656a4.017 4.017 0 0 1-.475-1.9c0-.915.268-1.786.867-2.573.62-.813 1.517-1.446 2.538-1.938 1.18-.568 2.497-.937 3.84-1.173 1.6-.282 3.267-.38 4.905-.38h11.513v4.17h-13.144c-.576 0-1.166.038-1.726.147-.435.085-.86.215-1.233.41-.277.145-.538.326-.705.556a1.1 1.1 0 0 0-.212.668c0 .227.06.44.19.643.15.23.38.428.632.593.465.302 1.18.58 1.72.786 1.093.42 2.223.79 3.354 1.14l5.417 1.675c1.108.342 2.2.744 3.218 1.23.843.404 1.655.877 2.334 1.443 1.246 1.039 1.91 2.277 1.91 3.706 0 1-.272 1.96-.904 2.833-.64.883-1.574 1.574-2.663 2.11-1.255.619-2.681 1.012-4.121 1.262-1.753.305-3.583.41-5.376.41h-12.514Zm-9.133 0v-23.78h6.483v23.78h-6.483Zm-16.833-5.713 9.015-17.767.153-.3h6.593l-.421.822-10.22 20.05a8.093 8.093 0 0 1-.94 1.456 5.012 5.012 0 0 1-1.126 1.037 4.648 4.648 0 0 1-1.402.607 6.692 6.692 0 0 1-1.663.196 6.707 6.707 0 0 1-1.659-.195 4.617 4.617 0 0 1-1.395-.603 5.06 5.06 0 0 1-1.12-1.03 8.75 8.75 0 0 1-.952-1.467L223.71 26.026h6.62l.193.38 8.95 17.687Zm-23.308 5.713v-23.78h6.483v23.78h-6.483Zm-18.927-19.802h-9.52v-3.98h25.524v3.98h-9.52v19.802h-6.484V30.004Zm-25.612-3.98h6.484V41.81c0 .588.11 1.185.416 1.726.274.488.687.892 1.217 1.223.6.379 1.31.63 2.05.793.944.208 1.96.277 2.94.277h7.515v3.978h-6.66c-1.996 0-4.052-.125-5.993-.507-1.569-.308-3.105-.797-4.4-1.57-1.196-.713-2.098-1.619-2.694-2.7-.644-1.168-.88-2.445-.88-3.71V26.026Zm-24.178 0v14.654c0 1.487.41 3.013 1.815 4.082.631.48 1.387.814 2.216 1.032 1.012.267 2.107.359 3.17.359 1.061 0 2.153-.093 3.162-.359.832-.22 1.592-.553 2.226-1.033a4.357 4.357 0 0 0 1.36-1.68c.35-.764.471-1.593.471-2.401V26.026h6.484v14.798c0 1.32-.276 2.627-.95 3.843-.647 1.172-1.62 2.17-2.854 3.001-1.286.867-2.764 1.493-4.374 1.901-1.78.451-3.66.625-5.525.625-1.864 0-3.744-.174-5.523-.624-1.612-.408-3.09-1.034-4.376-1.902-1.23-.83-2.198-1.83-2.843-3-.67-1.217-.943-2.524-.943-3.844V26.026h6.484Zm-29.57 17.045 7.525-14.7c.2-.39.45-.77.766-1.11a4.557 4.557 0 0 1 1.074-.84c.408-.235.86-.409 1.341-.524a6.647 6.647 0 0 1 1.531-.17 6.69 6.69 0 0 1 1.717.207c.524.138 1 .354 1.412.643a3.74 3.74 0 0 1 1 1.036c.27.422.45.881.57 1.351l4.76 20.27.134.564h-6.29l-.115-.495-3.792-16.552-7.513 14.634a6.407 6.407 0 0 1-.732 1.133 4.27 4.27 0 0 1-.903.845 3.89 3.89 0 0 1-1.148.521 5.01 5.01 0 0 1-1.334.172 5.46 5.46 0 0 1-1.354-.16 3.84 3.84 0 0 1-1.153-.504 4.072 4.072 0 0 1-.912-.84 6.62 6.62 0 0 1-.75-1.165l-7.51-14.628-3.854 17.04H96.01l4.893-20.84a4.52 4.52 0 0 1 .57-1.347 3.74 3.74 0 0 1 1-1.035c.411-.29.887-.505 1.411-.643a6.698 6.698 0 0 1 1.718-.206c.518 0 1.034.052 1.53.17.482.115.933.29 1.34.52a4.455 4.455 0 0 1 1.822 1.942l7.59 14.702Z" fill="#fff" fill-rule="evenodd" clip-rule="evenodd"/></svg>