<svg width="257" height="65" viewBox="0 0 257 65" fill="none" xmlns="http://www.w3.org/2000/svg">
<path fill-rule="evenodd" clip-rule="evenodd" d="M28.2808 27.6753C29.0601 27.6753 29.781 27.4926 30.4223 27.131C30.8013 26.9164 31.2646 26.5798 31.3166 26.1955L32.0903 20.8142C32.1157 20.5792 32.0789 20.2361 31.5397 19.8741C31.0301 19.5298 30.3324 19.3536 29.4665 19.3536H23.2078L22.046 27.6753H28.2808V27.6753ZM26.6299 45.5728C27.4468 45.5728 28.1954 45.3897 28.8541 45.0254C29.4183 44.7134 29.7253 44.3836 29.7678 44.0466L30.804 35.607L30.8123 35.5702C30.8438 35.4416 30.9186 35.1429 30.3714 34.7203C29.9025 34.3587 29.2677 34.1741 28.4868 34.1741H21.1953L19.5725 45.5728H26.6299V45.5728ZM17.914 52.0712C13.8575 52.0712 11.1988 51.287 9.78623 49.6759C8.88963 48.6541 8.53221 47.3217 8.7242 45.7187L13.2371 12.856H32.8191C34.3103 12.856 35.7096 13.0302 36.9803 13.3738C38.2624 13.7223 39.3745 14.2071 40.2856 14.8148C41.2254 15.4432 41.9456 16.2036 42.424 17.0731C42.9215 17.979 43.093 18.9674 42.9347 20.0111L42.3182 24.6436C42.092 26.1253 41.4629 27.4872 40.4453 28.7033C39.7418 29.5455 38.7697 30.251 37.5457 30.8126C37.9346 30.9715 38.2901 31.1469 38.6104 31.34C39.4072 31.8206 40.0363 32.3914 40.4813 33.0371C40.9238 33.68 41.2269 34.3825 41.3813 35.1237C41.5331 35.8585 41.5529 36.6197 41.439 37.3858L40.3576 45.1544C40.1998 46.1486 39.7528 47.0868 39.0274 47.957C38.3285 48.7946 37.4284 49.5278 36.3516 50.1373C35.2934 50.7362 34.0785 51.2148 32.7425 51.5561C31.4099 51.8981 29.9776 52.0712 28.4868 52.0712H17.914V52.0712Z" fill="black"/>
<path fill-rule="evenodd" clip-rule="evenodd" d="M41.5283 52.0713L45.8261 21.5812L46.3088 21.5228C48.2583 21.2864 49.9767 21.1666 51.4178 21.1666C51.9023 21.1666 52.3641 21.1796 52.7928 21.2061C54.339 21.3036 55.3908 21.6606 55.9835 22.2944C57.9242 21.4338 60.0358 20.9973 62.2702 20.9973H64.6424C66.0031 20.9969 67.2965 21.1804 68.4876 21.5462C69.6536 21.9044 70.6621 22.3055 71.4851 22.7389C72.5498 23.279 72.4583 24.077 72.368 24.396C72.2288 24.8908 71.8854 25.3683 71.3185 25.8555C70.8237 26.2812 70.1969 26.7019 69.4551 27.1057C68.7202 27.5045 67.9727 27.8277 67.2317 28.0646C66.4796 28.3056 65.7591 28.4481 65.0898 28.4857C65.009 28.4899 64.9297 28.4926 64.8538 28.4926C64.1769 28.4922 63.6343 28.3129 63.2416 27.9586C63.0401 27.7567 62.8234 27.6546 62.5522 27.6205C62.1689 27.5721 61.7269 27.5468 61.2382 27.5468H58.762C57.8814 27.5468 57.1013 27.7383 56.4441 28.1153C55.8897 28.4346 55.598 28.7778 55.5767 29.1348L52.5067 52.0713H41.5283V52.0713Z" fill="black"/>
<path fill-rule="evenodd" clip-rule="evenodd" d="M80.9925 52.6459C79.4994 52.6459 78.1073 52.4712 76.8544 52.1273C75.5958 51.7822 74.4856 51.2982 73.5568 50.6909C72.5968 50.0621 71.8676 49.3109 71.3899 48.4603C70.8936 47.5782 70.7027 46.6365 70.823 45.665L74.2284 21.7036L74.5657 21.565C75.8277 21.0476 77.043 20.7854 78.1786 20.7854C78.2553 20.7854 78.3312 20.7866 78.4067 20.7885C79.6265 20.8269 80.6908 21.1105 81.57 21.6326C82.4734 22.1685 83.159 22.9619 83.6075 23.9868C84.048 24.9941 84.1945 26.1595 84.0446 27.4508L81.6701 44.7372C81.6557 44.8658 81.617 45.1974 82.2173 45.5587C82.7515 45.8796 83.4667 46.0431 84.3447 46.0431H86.8725C87.7949 46.0431 88.5697 45.8757 89.1779 45.5445C89.7072 45.2585 89.9979 44.9287 90.0658 44.5376L93.2333 21.5182H104.001L99.8076 52.0294L99.3004 52.0689C97.9917 52.1737 96.7627 52.2697 95.6108 52.3565C94.7696 52.4194 93.9952 52.452 93.3092 52.452C93.0337 52.4517 92.7711 52.4459 92.5203 52.4359C91.5865 52.3987 90.8675 52.2839 90.3219 52.0862C89.8992 51.935 89.6416 51.7173 89.4879 51.4916C88.6088 51.8064 87.7266 52.0659 86.8562 52.2651C85.7464 52.5181 84.5546 52.6459 83.3135 52.6459H80.9925V52.6459Z" fill="black"/>
<path fill-rule="evenodd" clip-rule="evenodd" d="M116.321 52.0712C114.826 52.0712 113.433 51.897 112.184 51.5526C110.92 51.2072 109.824 50.7208 108.927 50.1105C108.008 49.4832 107.291 48.7274 106.8 47.8641C106.288 46.9701 106.07 46.0108 106.149 45.0143L108.675 28.0162H105.117L106.08 21.5182H109.497L109.818 19.6488C109.965 18.4542 110.434 17.3299 111.209 16.336C111.961 15.3695 112.882 14.5691 113.947 13.9573C114.999 13.35 116.152 12.93 117.371 12.7089C117.866 12.6203 118.359 12.5746 118.835 12.5746C119.557 12.5746 120.264 12.6786 120.938 12.884L121.467 13.0433L120.156 21.5182H123.71L122.746 28.0162H119.246L117.052 44.2136C117.023 44.3717 116.968 44.6696 117.53 45.0596C118.022 45.4001 118.709 45.5728 119.571 45.5728H123.402L122.511 51.497L122.143 51.6213C121.587 51.8094 120.992 51.9334 120.376 51.991C119.794 52.044 119.193 52.0712 118.59 52.0712H116.321Z" fill="black"/>
<path fill-rule="evenodd" clip-rule="evenodd" d="M139.944 38.24C139.072 38.24 138.303 38.4373 137.659 38.8254C137.055 39.1893 136.694 39.6054 136.589 40.0614L136.03 44.7061C136.001 44.9533 136.034 45.3253 136.652 45.6961C137.211 46.0331 137.953 46.2028 138.86 46.2028H142.265C143.146 46.2028 143.922 46.0293 144.571 45.6834C145.16 45.3717 145.484 45.0055 145.563 44.5652L146.487 37.3133C145.741 37.589 144.949 37.8016 144.125 37.9471C143.022 38.1413 141.84 38.24 140.613 38.24H139.944V38.24ZM135.507 52.4855C134.029 52.4855 132.65 52.3127 131.412 51.973C130.169 51.6329 129.073 51.1554 128.158 50.5566C127.219 49.9401 126.507 49.2092 126.043 48.3801C125.564 47.529 125.379 46.622 125.494 45.685L126.528 38.8353C126.679 37.8795 127.114 36.9667 127.821 36.1203C128.505 35.2988 129.381 34.5779 130.425 33.978C131.451 33.3861 132.635 32.9139 133.946 32.5723C135.25 32.2345 136.626 32.0625 138.036 32.0625H144.173C145.048 32.0625 145.837 31.8637 146.517 31.4729C147.131 31.1194 147.468 30.7221 147.518 30.2937L147.728 29.0189C147.754 28.7824 147.724 28.3878 147.119 27.9487C146.603 27.5759 145.889 27.3867 144.997 27.3867H142.47C141.631 27.3867 140.859 27.5848 140.177 27.9767C139.563 28.3287 139.227 28.7264 139.177 29.1532L139.158 29.3187L138.696 29.7877H128.703L128.846 27.9137C128.961 26.9291 129.391 26.0167 130.125 25.1795C130.827 24.3768 131.729 23.6671 132.802 23.0686C133.864 22.4783 135.082 22.0065 136.424 21.6672C137.763 21.329 139.19 21.1566 140.664 21.1566H148.401C149.88 21.1566 151.259 21.329 152.497 21.6698C153.747 22.0138 154.826 22.4909 155.707 23.0901C156.605 23.7035 157.296 24.4333 157.762 25.2597C158.244 26.1196 158.411 27.0497 158.258 28.0258L155.012 51.8575L154.655 51.907C152.098 52.2597 150.026 52.4367 148.499 52.4367C146.562 52.4367 145.438 52.1599 144.963 51.5603C144.901 51.4824 144.849 51.3976 144.808 51.3089C143.904 51.6367 142.989 51.9062 142.083 52.1081C140.967 52.3584 139.831 52.4858 138.706 52.4858L135.507 52.4855V52.4855Z" fill="black"/>
<path fill-rule="evenodd" clip-rule="evenodd" d="M167.171 52.0712L171.711 19.3536H162.168L161.985 19.0315C161.486 18.149 161.354 17.2869 161.593 16.4715C161.817 15.7061 162.268 15.0386 162.934 14.4878C163.563 13.968 164.356 13.5596 165.293 13.2751C166.206 12.9976 167.187 12.856 168.208 12.856H193.294L192.267 19.3536H182.529L177.991 52.0712H167.171V52.0712Z" fill="black"/>
<path fill-rule="evenodd" clip-rule="evenodd" d="M205.357 31.332L205.753 29.0154C205.756 28.9191 205.782 28.4573 205.052 27.9567C204.498 27.5778 203.797 27.3867 202.971 27.3867H200.495C199.587 27.3867 198.78 27.5848 198.098 27.9767C197.494 28.3237 197.176 28.7102 197.152 29.1263L196.778 31.332H205.357ZM194.358 51.9116C192.876 51.9116 191.498 51.7392 190.262 51.3991C189.016 51.0579 187.929 50.58 187.029 49.9792C186.111 49.3662 185.402 48.6276 184.92 47.7839C184.424 46.9152 184.23 45.9809 184.344 45.0094L186.666 27.8846C186.78 26.9303 187.2 26.0198 187.913 25.1841C188.601 24.3787 189.494 23.6671 190.57 23.0686C191.629 22.4783 192.857 22.0065 194.218 21.6664C195.573 21.3274 197.008 21.1566 198.483 21.1566H206.22C207.7 21.1566 209.077 21.329 210.316 21.6698C211.561 22.0107 212.639 22.4798 213.52 23.0606C214.426 23.6605 215.111 24.3749 215.558 25.186C216.022 26.0278 216.178 26.9318 216.024 27.8727L214.733 37.5103H195.855L194.93 44.1917C194.902 44.4167 194.935 44.7733 195.55 45.1875C196.087 45.5506 196.814 45.7333 197.71 45.7333H200.186C201.031 45.7333 201.826 45.5414 202.546 45.161C203.179 44.8267 203.562 44.4566 203.683 44.0605V42.8559L203.988 42.7381C205.893 42.0034 207.582 41.4694 209.006 41.1523C210.011 40.9297 210.884 40.8165 211.603 40.8165C211.934 40.8165 212.241 40.841 212.514 40.8867C213.768 41.104 214.199 41.8091 214.34 42.3634C214.525 43.0939 214.319 44.0486 213.711 45.2804C213.361 46.0995 212.82 46.9241 212.116 47.7098C211.421 48.4875 210.562 49.2004 209.567 49.8288C208.573 50.4575 207.431 50.9681 206.174 51.3435C204.916 51.72 203.526 51.9116 202.043 51.9116H194.358V51.9116Z" fill="black"/>
<path fill-rule="evenodd" clip-rule="evenodd" d="M226.182 51.9116C224.7 51.9116 223.321 51.7392 222.085 51.3991C220.839 51.0579 219.751 50.58 218.853 49.9792C217.934 49.3662 217.224 48.6276 216.744 47.7839C216.247 46.9152 216.053 45.9809 216.168 45.0094L218.49 27.8846C218.603 26.9303 219.023 26.0198 219.736 25.1841C220.424 24.3787 221.317 23.6671 222.393 23.0686C223.453 22.4783 224.68 22.0065 226.042 21.6664C227.397 21.3274 228.831 21.1566 230.306 21.1566H238.044C239.521 21.1566 240.915 21.329 242.188 21.6687C243.471 22.0107 244.583 22.4882 245.496 23.0855C246.433 23.6989 247.144 24.4306 247.611 25.2597C248.101 26.133 248.229 27.0761 247.996 28.0627C247.694 29.8572 246.586 30.9769 244.798 31.2683C244.499 31.3167 244.175 31.342 243.835 31.342C242.261 31.3416 240.199 30.8061 237.706 29.7505L237.145 29.5117L237.571 28.9367C237.556 28.7229 237.451 28.3509 236.875 27.9567C236.321 27.5778 235.62 27.3867 234.794 27.3867H232.319C231.409 27.3867 230.603 27.5848 229.922 27.9767C229.318 28.3237 228.999 28.7102 228.976 29.1263L226.753 44.1964C226.726 44.4167 226.758 44.7733 227.373 45.1875C227.91 45.5506 228.637 45.7333 229.533 45.7333H232.009C232.855 45.7333 233.648 45.5414 234.369 45.161C235.009 44.822 235.393 44.4478 235.51 44.0482L235.69 41.1416H246.118L245.579 45.1299C245.467 46.0815 245.05 47.0001 244.338 47.8538C243.649 48.6768 242.764 49.3992 241.704 49.998C240.658 50.5903 239.448 51.0625 238.107 51.4022C236.77 51.7392 235.343 51.9116 233.866 51.9116H226.182V51.9116Z" fill="black"/>
</svg>
