<svg width="200" height="100" viewBox="0 0 200 100" fill="none" xmlns="http://www.w3.org/2000/svg">
<path fill-rule="evenodd" clip-rule="evenodd" d="M100 29.7377C102.569 29.7377 105.112 29.7794 107.626 29.8569C135.023 21.5171 144.84 29.3841 144.741 34.1263C161.064 37.5826 174.17 42.8724 181.994 49.2335C173.571 43.7307 160.194 39.1909 143.793 36.2519C142.756 37.1791 140.913 37.4873 138.486 36.62C136.589 35.942 135.065 35.2995 133.728 34.7011C123.287 33.3404 111.91 32.5928 100 32.5928C64.1505 32.5928 33.1067 39.3653 18.0027 49.2366C26.8693 42.0252 42.5205 36.1916 61.9501 32.8432C58.1297 30.3471 61.8139 23.3211 67.408 25.3207C73.6211 27.5412 75.836 29.3841 80.5742 30.5144C84.1282 30.2262 87.7589 30.0144 91.4566 29.8861C54.9509 25.8431 69.9569 7.5052 76.5262 14.5556C82.8368 21.3289 79.7644 23.2986 97.3782 29.7526C98.2491 29.7432 99.1227 29.7377 100 29.7377V29.7377ZM138.082 24.3416C125.426 24.5045 124.722 21.5809 105.348 29.2325C131.408 4.16935 151.628 24.1675 138.082 24.3416ZM128.263 13.8395C117.428 18.0824 114.564 15.7801 103.686 28.6869C106.927 -1.46731 139.86 9.29695 128.263 13.8395ZM111.61 7.92686C105.5 15.1151 101.242 14.0486 101.776 28.7534C81.3301 1.58862 118.151 0.233882 111.61 7.92686V7.92686ZM92.7239 8.18906C92.9751 16.395 88.466 16.8525 100.267 29.414C61.6131 12.5167 92.4554 -0.594077 92.7239 8.18906V8.18906ZM183.27 75.542C169.814 87.6231 137.603 96.1323 100 96.1323C62.3962 96.1323 30.1858 87.6239 16.7295 75.5412C31.3095 85.8814 63.11 93.0519 100 93.0519C136.89 93.0519 168.69 85.8814 183.27 75.542ZM30.8217 77.0892V48.0587V47.5031H31.3776H53.76H54.3159V48.0587V49.2602V49.8162H53.76H35.5465V61.4143H45.878H46.4335V61.9702V63.1655V63.7214H45.878H35.5465V77.0892V77.6451H34.9906H31.3776H30.8217V77.0892V77.0892ZM70.3852 77.6451H67.0639H66.508V77.0892V72.2695C65.8006 73.0345 65.0474 73.723 64.2513 74.336C63.0702 75.2467 61.7903 75.9908 60.4167 76.5668H60.4147C59.5517 76.9239 58.71 77.1939 57.8954 77.3723C57.0682 77.5534 56.2635 77.6451 55.4824 77.6451C55.0096 77.6451 54.5438 77.6097 54.0859 77.542H54.0836C53.6316 77.4746 53.184 77.3723 52.7446 77.2361L52.7438 77.2376C51.5462 76.8758 50.5418 76.3065 49.7355 75.5337C48.9308 74.7612 48.328 73.7896 47.93 72.6203H47.9308C47.7643 72.1435 47.6383 71.651 47.5544 71.1455C47.4713 70.6356 47.4292 70.1167 47.4292 69.5911C47.4292 68.8702 47.5099 68.1198 47.6694 67.3427C47.8257 66.5801 48.0611 65.7923 48.3725 64.982V64.9761C48.9158 63.6021 49.6312 62.3163 50.5166 61.1214C51.4001 59.9288 52.4509 58.8292 53.6659 57.8241H53.6678C54.8887 56.8178 56.147 56.0127 57.4359 55.4146C58.7328 54.8134 60.0671 54.417 61.4352 54.2264H61.4419C62.81 54.05 64.0616 54.1036 65.1942 54.3851H65.1962C66.3443 54.6721 67.3722 55.1938 68.2742 55.9489L68.2789 55.9536C69.1651 56.7123 69.8329 57.615 70.2777 58.6595C70.7195 59.6954 70.9411 60.8659 70.9411 62.1678V77.0892V77.6451H70.3852V77.6451ZM54.1958 74.5671C54.4269 74.7116 54.6828 74.8258 54.9592 74.9065H54.9611C55.2497 74.9912 55.5682 75.0459 55.9135 75.0675C56.2627 75.0896 56.6273 75.0699 57.0052 75.0097C57.3915 74.9482 57.7997 74.8423 58.2253 74.6947L58.234 74.6904C58.6678 74.5471 59.1013 74.3597 59.532 74.1301V74.1278C59.9789 73.8904 60.4281 73.6073 60.8761 73.2821C61.3261 72.9352 61.7588 72.5557 62.171 72.1502C62.584 71.7443 62.982 71.3018 63.362 70.8297L63.3612 70.8289C63.7505 70.3344 64.1017 69.8289 64.4123 69.3183V69.3163C64.7301 68.7947 65.0163 68.2533 65.269 67.697L65.2698 67.6974C65.5261 67.1269 65.7442 66.5557 65.9226 65.9872V65.9848C66.1005 65.4202 66.2399 64.8584 66.3372 64.3033H66.3376C66.4305 63.7348 66.4852 63.1879 66.5013 62.6674C66.5179 62.1576 66.4962 61.6611 66.438 61.1824H66.4391C66.3785 60.7249 66.2868 60.2958 66.1667 59.8993C66.0486 59.5115 65.899 59.1501 65.7202 58.8178H65.721C65.5553 58.5202 65.3667 58.2489 65.16 58.0087C64.9576 57.7745 64.7324 57.5654 64.4872 57.3859L64.4879 57.3855C64.247 57.2178 63.9915 57.0792 63.7246 56.9741C63.4568 56.8674 63.1679 56.7902 62.8612 56.7434C62.5371 56.6938 62.1903 56.6812 61.8273 56.7056C61.458 56.73 61.0659 56.7926 60.66 56.8887V56.8902C60.2182 57.017 59.7824 57.1816 59.356 57.3808C58.9249 57.5831 58.4891 57.8284 58.0497 58.1115C57.593 58.4139 57.1513 58.7544 56.7296 59.1269C56.3048 59.5029 55.8915 59.9186 55.497 60.3698C55.1037 60.8214 54.7316 61.3017 54.3875 61.8068C54.0481 62.3064 53.7296 62.8371 53.4359 63.3966H53.4367C53.1603 63.9458 52.9151 64.51 52.7036 65.0805H52.7017C52.4926 65.6438 52.3162 66.219 52.1729 66.7994H52.1718C52.0477 67.3604 51.9619 67.9131 51.9143 68.4537C51.8686 68.9864 51.8627 69.4978 51.8966 69.9864V69.9994C51.9198 70.4671 51.9788 70.9199 52.0729 71.3529C52.1651 71.7722 52.291 72.1718 52.4501 72.5447C52.6068 72.8943 52.784 73.2041 52.9757 73.4719C53.1678 73.738 53.3804 73.9691 53.6096 74.1624L53.6316 74.1817C53.7182 74.264 53.8029 74.3329 53.8808 74.3864L53.8852 74.3888C53.9607 74.4412 54.0497 74.4923 54.1454 74.5392L54.169 74.5502L54.1958 74.5671V74.5671ZM70.4348 51.937L54.6954 53.3874L54.0899 53.4434V52.8363V51.7985V51.3599L54.5174 51.2583L70.2569 47.5185L70.9411 47.3555V48.0587V51.3859V51.8906L70.4348 51.937V51.937ZM87.3743 75.1565C86.1038 75.9821 84.8372 76.603 83.5774 77.0168V77.0176C82.305 77.4361 81.036 77.6451 79.773 77.6451H79.5561L79.5447 77.6428C78.2219 77.6172 77.0451 77.3672 76.0207 76.8943C74.9833 76.4164 74.101 75.7093 73.3793 74.7762L73.377 74.7738C72.8384 74.0723 72.4313 73.2971 72.1608 72.4557C71.8911 71.6175 71.7561 70.7147 71.7561 69.7529C71.7561 69.4466 71.7718 69.1325 71.799 68.8143C71.8258 68.5017 71.8695 68.1718 71.9266 67.834C72.149 66.4738 72.5758 65.1494 73.2053 63.8643C73.8305 62.5859 74.6585 61.3474 75.6837 60.1536L75.6856 60.1513C76.7203 58.9587 77.8423 57.9343 79.0475 57.0816V57.0792C80.2565 56.2249 81.549 55.5438 82.9191 55.0351H82.9215C83.6699 54.7595 84.4006 54.5504 85.1077 54.4119H85.1101C85.8274 54.2725 86.5243 54.2012 87.1963 54.2012C87.7617 54.2012 88.3215 54.254 88.8727 54.3548C89.4235 54.4564 89.9558 54.6067 90.4676 54.8016L90.8258 54.9382V55.3205V58.3013V60.1044L89.8117 58.6119C89.6546 58.38 89.4829 58.1643 89.301 57.9686C89.1254 57.7804 88.9432 57.615 88.7565 57.4765C88.5199 57.3091 88.2695 57.1705 88.0073 57.0666C87.7404 56.9607 87.4491 56.8835 87.1349 56.8371V56.8355C86.7975 56.7926 86.4439 56.7835 86.0809 56.8072C85.7081 56.8324 85.3243 56.8934 84.9353 56.9875V56.9867C84.5113 57.102 84.0813 57.2631 83.6479 57.4646L83.6471 57.4631C83.2164 57.6631 82.7829 57.9099 82.3471 58.1997H82.3447C81.8963 58.495 81.4569 58.832 81.0321 59.208C80.6104 59.5804 80.2038 59.9934 79.814 60.4426L79.8101 60.4469C79.4128 60.8954 79.0415 61.3733 78.6998 61.8773C78.3589 62.38 78.0404 62.921 77.7439 63.4946L77.7431 63.4938C77.4762 64.0139 77.2368 64.5604 77.0266 65.1273H77.0258C76.8175 65.6919 76.6427 66.2671 76.5018 66.8482H76.5026C76.3683 67.4234 76.2742 67.9769 76.2262 68.5025C76.1778 69.0273 76.1711 69.5423 76.2061 70.0439V70.0553C76.2289 70.5281 76.2896 70.9777 76.3852 71.401C76.4781 71.8116 76.61 72.2061 76.7781 72.5793L76.7805 72.586C76.9301 72.9285 77.1022 73.2325 77.2904 73.4947L77.2923 73.4971C77.4809 73.76 77.6919 73.99 77.9187 74.1817L77.9411 74.201C78.0285 74.2833 78.1167 74.3569 78.2006 74.4167C78.2892 74.4805 78.3805 74.5384 78.4723 74.5872L78.4915 74.5975C78.7364 74.7408 79.0022 74.8569 79.2892 74.9416C79.5805 75.0274 79.8931 75.0829 80.229 75.1045V75.1053C80.5845 75.1171 80.9573 75.0951 81.3427 75.0364C81.7282 74.9778 82.1203 74.8813 82.514 74.7518L82.5132 74.7502C82.962 74.5904 83.4085 74.3892 83.8455 74.149C84.2805 73.9104 84.7144 73.6274 85.1396 73.3065L85.1443 73.3041C85.405 73.1116 85.6636 72.9018 85.9156 72.6789C86.166 72.4573 86.4187 72.2128 86.6707 71.9478L87.6286 70.9439V72.3305V74.6916V74.9904L87.3743 75.1565V75.1565ZM97.2408 77.6451H93.92H93.364V77.0892V54.689V54.1331H93.92H97.2408H97.7967V54.689V77.0892V77.6451H97.2408ZM93.8074 51.4807C93.653 51.3221 93.5369 51.1406 93.4597 50.9418C93.3833 50.7441 93.3455 50.5343 93.3455 50.3142C93.3455 50.2579 93.3507 50.1866 93.3581 50.1075L93.3605 50.0851L93.3825 49.928L93.3849 49.913C93.4322 49.628 93.5286 49.3508 93.6723 49.089L93.6731 49.0898C93.8081 48.8429 93.9881 48.6059 94.207 48.3886H94.2062C94.4231 48.1595 94.6625 47.9752 94.9168 47.835C95.1644 47.7 95.4298 47.6059 95.7062 47.5571C95.7692 47.5413 95.8373 47.5283 95.9097 47.5185L95.9188 47.5161C95.9908 47.5083 96.0617 47.5031 96.1314 47.5031C96.3621 47.5031 96.5782 47.5421 96.7778 47.6201V47.6209C96.9861 47.7016 97.1684 47.8201 97.3239 47.976L97.3349 47.9886C97.4826 48.1449 97.596 48.3264 97.67 48.5272C97.7428 48.7205 97.7782 48.9288 97.7782 49.1492L97.7763 49.1646L97.7715 49.315V49.3469L97.7578 49.5063L97.7554 49.5272L97.7487 49.5634C97.6948 49.8414 97.5967 50.1126 97.455 50.3721V50.374C97.3196 50.6209 97.1416 50.8587 96.9239 51.0803C96.7007 51.3071 96.4621 51.4902 96.2109 51.628C95.9475 51.7721 95.6711 51.8705 95.3865 51.9209H95.3845C95.0829 51.9737 94.7991 51.9678 94.5389 51.9008C94.2577 51.8292 94.014 51.6898 93.8117 51.4874L93.8074 51.4807V51.4807ZM101.333 77.0892V48.0587V47.5031H101.888H105.21H105.766V48.0587V77.0892V77.6451H105.21H101.888H101.333V77.0892V77.0892ZM115.2 47.4598H137.6H138.156V48.0157V49.2122V49.7677H137.6H128.768V77.0782V77.6341H128.213H124.581H124.026V77.0782V49.7677H115.2H114.644V49.2122V48.0157V47.4598H115.2ZM155.869 62.8363L137.174 69.8313L137.187 70.0077V70.0254C137.211 70.5029 137.271 70.9533 137.365 71.375V71.3774C137.458 71.7903 137.589 72.1829 137.754 72.5522L137.756 72.5541C137.913 72.9108 138.087 73.2234 138.276 73.4896C138.463 73.7534 138.671 73.9809 138.895 74.1699L138.91 74.1849C138.995 74.262 139.085 74.336 139.18 74.4026L139.182 74.4049C139.272 74.4695 139.365 74.5278 139.458 74.5782L139.48 74.5908C139.724 74.7384 139.99 74.8569 140.276 74.9416C140.562 75.0254 140.871 75.0778 141.196 75.0935H141.2C141.553 75.1128 141.923 75.0927 142.304 75.0321C142.687 74.9711 143.091 74.8667 143.51 74.7207L143.514 74.7183C143.946 74.5711 144.383 74.3774 144.821 74.1427C145.261 73.9045 145.709 73.6215 146.161 73.2939L146.161 73.2931C146.43 73.0915 146.69 72.8789 146.934 72.6589V72.6565C147.186 72.4289 147.436 72.1829 147.679 71.9226L148.641 70.8911V72.301V74.6797V74.9793L148.387 75.1447C147.192 75.9199 145.992 76.5148 144.792 76.9254C143.589 77.3368 142.38 77.5668 141.167 77.6124V77.6132L140.955 77.6274H140.931L140.71 77.6317L140.699 77.6341C139.571 77.6341 138.539 77.4628 137.605 77.1211C136.664 76.779 135.825 76.2609 135.091 75.5738H135.089C134.31 74.8423 133.723 73.9786 133.331 72.9864C132.944 72.0089 132.747 70.9029 132.74 69.6758L132.738 69.6734V69.6364C132.738 68.4423 132.924 67.2387 133.294 66.0269C133.662 64.8226 134.211 63.6174 134.937 62.4155L134.942 62.4111C135.679 61.2139 136.533 60.1229 137.501 59.1434C138.472 58.1615 139.556 57.2898 140.749 56.5324L140.75 56.5339C141.952 55.7682 143.157 55.1855 144.36 54.7914C145.571 54.3949 146.788 54.1835 148.008 54.1615L148.017 54.1591H148.253C149.417 54.1591 150.479 54.3406 151.437 54.7032C152.402 55.0693 153.256 55.6205 153.997 56.3544C154.745 57.0985 155.306 57.9643 155.678 58.9446C156.047 59.9162 156.232 61.0013 156.232 62.1938V62.3174V62.7009L155.869 62.8363V62.8363ZM151.762 61.621L151.726 61.1844H151.727C151.667 60.73 151.576 60.306 151.458 59.917C151.339 59.5265 151.189 59.1686 151.013 58.8462L151.009 58.8402C150.85 58.5371 150.668 58.2666 150.468 58.0324L150.466 58.03C150.267 57.7965 150.044 57.5906 149.8 57.4158L149.801 57.415C149.552 57.2402 149.289 57.0961 149.015 56.9859C148.743 56.8753 148.452 56.7969 148.152 56.7509V56.7493C147.816 56.7072 147.463 56.6997 147.095 56.7264C146.723 56.754 146.335 56.8205 145.934 56.9205V56.919C145.501 57.0379 145.067 57.1977 144.637 57.3985C144.208 57.5997 143.776 57.8442 143.349 58.1308L143.345 58.1332C142.897 58.4272 142.456 58.7647 142.027 59.141C141.602 59.5147 141.187 59.9273 140.788 60.3773C140.399 60.8229 140.031 61.3009 139.685 61.8076C139.343 62.3111 139.022 62.8446 138.727 63.4056L138.728 63.4064C138.448 63.9584 138.202 64.5186 137.995 65.0812C137.782 65.658 137.605 66.2399 137.464 66.823L137.428 67.0009L151.762 61.621V61.621ZM170.174 75.1447C168.903 75.9703 167.637 76.592 166.377 77.0057V77.0061C165.105 77.425 163.836 77.6341 162.573 77.6341H162.356L162.345 77.6317C161.022 77.6057 159.845 77.3561 158.821 76.8833C157.783 76.4053 156.901 75.6983 156.179 74.7652L156.177 74.7628C155.638 74.0604 155.231 73.2856 154.961 72.4439C154.691 71.6065 154.556 70.7037 154.556 69.7415C154.556 69.4356 154.571 69.1206 154.599 68.801H154.601C154.63 68.4698 154.673 68.1415 154.726 67.8222C154.949 66.4627 155.375 65.1368 156.005 63.8525C156.631 62.5757 157.458 61.3371 158.484 60.1422L158.486 60.1403C159.523 58.9426 160.645 57.9174 161.847 57.0682C163.056 56.2135 164.349 55.5323 165.719 55.0241H165.721C166.47 54.7485 167.201 54.5394 167.908 54.4008C168.625 54.2607 169.322 54.1894 169.996 54.1894C170.562 54.1894 171.121 54.2422 171.673 54.3438C172.223 54.4445 172.756 54.5957 173.268 54.7906L173.626 54.9268V55.3095V58.2902V60.0934L172.612 58.6009C172.455 58.3698 172.283 58.1532 172.1 57.9568C171.928 57.7721 171.745 57.6068 171.554 57.4654L171.555 57.4646C171.319 57.2973 171.069 57.1591 170.807 57.0556C170.54 56.9497 170.249 56.8725 169.935 56.8257V56.8245C169.597 56.7812 169.244 56.7725 168.881 56.7961C168.508 56.8213 168.124 56.882 167.735 56.9761V56.9757C167.311 57.091 166.881 57.252 166.448 57.4536L166.447 57.452C166.016 57.652 165.583 57.8989 165.147 58.1887H165.145C164.697 58.4835 164.258 58.8202 163.833 59.1965C163.411 59.5694 163.003 59.9824 162.614 60.4308L162.61 60.4351C162.212 60.8851 161.841 61.3631 161.5 61.8663C161.159 62.3686 160.84 62.9092 160.544 63.4828L160.543 63.482C160.276 64.0021 160.037 64.5493 159.827 65.1163H159.826C159.617 65.6816 159.443 66.2561 159.302 66.8372H159.302C159.168 67.4124 159.074 67.9659 159.026 68.4915C158.978 69.0159 158.971 69.5305 159.006 70.0329V70.0439C159.028 70.5155 159.089 70.9651 159.185 71.3876C159.278 71.7982 159.41 72.1935 159.578 72.5683L159.58 72.575C159.731 72.9191 159.902 73.2226 160.09 73.4852H160.093C160.283 73.7514 160.493 73.9801 160.719 74.1699L160.741 74.1892C160.828 74.2715 160.917 74.3447 161.001 74.4049C161.086 74.4671 161.178 74.5242 161.274 74.5762L161.291 74.5864C161.536 74.7293 161.802 74.8459 162.089 74.9305C162.38 75.0164 162.693 75.0719 163.029 75.0935V75.0943C163.384 75.1061 163.757 75.0837 164.141 75.0254C164.526 74.9668 164.918 74.8703 165.312 74.7408L165.311 74.7392C165.765 74.577 166.213 74.3754 166.647 74.1372C167.083 73.8986 167.515 73.6163 167.94 73.2955L167.944 73.2931C168.205 73.1006 168.462 72.8915 168.714 72.6683L168.714 72.6675C168.972 72.438 169.227 72.1927 169.471 71.9368L170.429 70.9325V72.3195V74.6797V74.9793L170.174 75.1447V75.1447Z" fill="#4B5E82"/>
</svg>
