<svg width="527" height="614" viewBox="0 0 527 614" fill="none" xmlns="http://www.w3.org/2000/svg">
<g clip-path="url(#clip0_742_25398)">
<path opacity="0.4" d="M205.767 342.968L163.238 318.555L208.862 292.227L251.391 316.64L205.767 342.968Z" fill="#D6D8E5"/>
<path d="M210.532 288.15L164.921 261.81L210.532 235.469L256.156 261.81L210.532 288.15Z" fill="#EFDA86"/>
<path d="M253.073 315.645L210.532 340.205V291.085L253.073 266.537V315.645Z" fill="#D1B66B"/>
<path d="M210.532 340.205L168.003 315.645V266.537L210.532 291.085V340.205Z" fill="#E2C979"/>
<path opacity="0.1" d="M168.003 266.537V279.382L210.532 303.66V291.147L168.003 266.537Z" fill="black"/>
<path opacity="0.1" d="M253.073 266.537V280.303L210.532 303.66V291.147L253.073 266.537Z" fill="black"/>
<path d="M164.921 261.81V275.428L210.532 301.413V288.15L164.921 261.81Z" fill="#E2C979"/>
<path d="M210.532 301.413L256.156 276.496V261.81L210.532 288.15V301.413Z" fill="#D1B66B"/>
<path opacity="0.4" d="M377.025 454.36L241.051 376.063C240.272 375.611 239.628 374.959 239.188 374.173C238.748 373.388 238.527 372.499 238.548 371.599C238.57 370.699 238.833 369.821 239.309 369.057C239.786 368.293 240.46 367.672 241.259 367.258L258.367 358.441C259.113 358.059 259.943 357.869 260.782 357.888C261.62 357.908 262.44 358.136 263.169 358.551L403.724 439.477C404.506 439.926 405.153 440.577 405.596 441.363C406.039 442.149 406.261 443.039 406.24 443.941C406.218 444.843 405.954 445.722 405.474 446.486C404.995 447.25 404.318 447.87 403.515 448.281L391.099 454.679C388.915 455.811 386.481 456.375 384.021 456.319C381.562 456.263 379.156 455.589 377.025 454.36Z" fill="#D6D8E5"/>
<path d="M385.376 439.624L269.493 372.723C259.668 367.061 251.723 351.847 251.723 338.768V15.571C251.759 2.456 259.681 -3.53664 269.493 2.13672L385.376 69.0259C395.201 74.6992 403.147 89.9019 403.147 102.98V426.19C403.147 439.28 395.189 445.285 385.376 439.624Z" fill="#B1B4C4"/>
<path d="M387.365 445.445L396.539 440.803L387.734 425.711L387.365 445.445Z" fill="#B1B4C4"/>
<path d="M249.93 5.35408L258.379 0.921L256.672 13.3852L249.93 5.35408Z" fill="#B1B4C4"/>
<path d="M377.983 443.308L262.112 376.407C252.288 370.745 244.342 355.531 244.342 342.452V19.2673C244.391 6.14 252.3 0.159639 262.112 5.82072L377.983 72.7222C387.808 78.3955 395.766 93.5982 395.766 106.676V429.886C395.766 442.964 387.808 448.981 377.983 443.308Z" fill="#616E84"/>
<path d="M394.525 107.499V430.696C394.525 443.799 386.579 449.804 376.755 444.143L331.315 417.913L317.18 409.747L260.872 377.242C251.047 371.568 243.113 356.366 243.113 343.287V20.0901C243.162 6.98732 251.059 0.982399 260.872 6.64348L376.755 73.5449C386.579 79.2183 394.525 94.4086 394.525 107.499Z" fill="#20232D"/>
<path d="M386.162 104.22V419.006C386.162 426.939 380.598 430.156 373.746 426.177L367.605 422.616L346.556 410.471L337.505 405.24L334.312 403.386L333.243 402.759L325.445 398.277L302.786 385.211L293.453 379.82L289.67 377.635L267.073 364.593L263.991 362.813C257.114 358.846 251.562 349.206 251.562 341.261V26.4511C251.562 18.5182 257.114 15.3009 263.991 19.2673L309.136 45.436V45.5588C309.317 48.9186 310.287 52.1885 311.969 55.103C313.65 58.0175 315.995 60.4946 318.813 62.3333C324.167 65.4033 328.503 62.9104 328.503 56.7459C328.503 56.7459 328.503 56.6476 328.503 56.6108L373.758 82.7304C380.598 86.6477 386.162 96.2875 386.162 104.22Z" fill="white"/>
<path d="M322.678 59.2732C324.118 58.4458 324.122 55.7518 322.687 53.2559C321.253 50.76 318.923 49.4075 317.483 50.2349C316.043 51.0623 316.039 53.7564 317.473 56.2522C318.908 58.7481 321.238 60.1006 322.678 59.2732Z" fill="#2B303F"/>
<path opacity="0.1" d="M318.813 56.3038C318.366 56.0114 317.994 55.6178 317.727 55.1548C317.461 54.6918 317.307 54.1726 317.278 53.639C317.278 52.6566 317.966 52.2637 318.813 52.7549C319.264 53.0445 319.64 53.4371 319.909 53.9005C320.178 54.3638 320.333 54.8846 320.361 55.4196C320.361 56.402 319.673 56.795 318.813 56.3038Z" fill="white"/>
<path d="M399.229 150.025C398.283 150.577 397.521 150.025 397.521 148.797V134.957C397.53 134.317 397.688 133.688 397.985 133.12C398.281 132.553 398.707 132.063 399.229 131.691C400.174 131.138 400.936 131.691 400.936 132.98V146.758C400.928 147.399 400.769 148.028 400.472 148.595C400.176 149.163 399.75 149.653 399.229 150.025Z" fill="#757B89"/>
<path d="M399.229 172.608C398.283 173.148 397.521 172.608 397.521 171.318V157.528C397.532 156.888 397.692 156.26 397.989 155.693C398.285 155.126 398.71 154.636 399.229 154.261C400.174 153.721 400.936 154.261 400.936 155.563V169.341C400.927 169.981 400.767 170.61 400.471 171.178C400.174 171.745 399.749 172.235 399.229 172.608Z" fill="#757B89"/>
<path d="M360.863 211.842L273.668 161.494C269.984 159.358 266.963 153.623 266.963 148.674V50.434C266.963 45.522 269.959 43.2256 273.668 45.3623L360.863 95.7103C364.547 97.847 367.568 103.582 367.568 108.518V206.758C367.568 211.707 364.572 213.979 360.863 211.842Z" fill="#E9EAF2"/>
<path d="M360.863 343.3L273.668 292.952C269.984 290.815 266.963 285.08 266.963 280.144V181.904C266.963 176.992 269.959 174.695 273.668 176.832L360.863 227.18C364.547 229.317 367.568 235.051 367.568 240V338.24C367.568 343.165 364.572 345.436 360.863 343.3Z" fill="#E9EAF2"/>
<path d="M367.581 371.421V422.616L337.505 405.24L334.312 403.386L333.244 402.759L325.445 398.277L302.787 385.211L293.392 379.796L289.61 377.61L267.013 364.569V313.361C267.013 308.449 270.022 306.165 273.718 308.302L360.913 358.65C364.573 360.75 367.581 366.484 367.581 371.421Z" fill="#E9EAF2"/>
<path d="M343.51 130.745L331.585 110.078C331.132 109.256 330.477 108.563 329.682 108.064C329.576 108.001 329.465 107.947 329.35 107.904C329.241 107.822 329.126 107.748 329.006 107.683L325.691 105.768C324.782 105.24 323.934 105.276 323.443 105.878C322.387 107.106 320.004 106.996 317.376 105.473C314.73 103.943 312.614 101.643 311.31 98.8786C310.863 97.7575 310.071 96.8072 309.05 96.1647L305.795 94.2613C305.69 94.1944 305.579 94.1369 305.464 94.0894C305.169 93.8146 304.802 93.6303 304.406 93.5585C304.009 93.4866 303.601 93.5302 303.229 93.6841L291.304 100.573C290.248 101.187 290.248 103.14 291.304 104.957L297.825 116.255C298.259 117.067 298.888 117.759 299.655 118.269C299.928 118.463 300.248 118.583 300.582 118.615C300.916 118.648 301.253 118.592 301.558 118.453L303.057 117.581V145.211C303.123 146.139 303.405 147.039 303.88 147.838C304.356 148.638 305.012 149.315 305.795 149.816L329.006 163.324C330.492 164.184 331.684 163.484 331.684 161.777V134.147L333.194 136.75C333.642 137.569 334.293 138.258 335.085 138.752C335.359 138.946 335.678 139.066 336.013 139.098C336.347 139.131 336.683 139.075 336.989 138.936L343.51 135.166C344.554 134.515 344.554 132.624 343.51 130.745Z" fill="#D9DAE2"/>
<path d="M338.463 256.971L296.278 232.62C295.162 236.238 294.571 239.997 294.521 243.783V270.16L313.852 281.323L317.376 261.036L320.889 285.387L340.182 296.55V270.16C340.088 265.714 339.512 261.292 338.463 256.971Z" fill="#D9DAE2"/>
<path d="M338.463 248.854L296.278 224.503V230.594L338.463 254.945V248.854Z" fill="#D9DAE2"/>
<path d="M346.531 410.471L337.505 405.24L334.312 403.386L333.243 402.759L325.445 398.277L302.787 385.211L293.453 379.82V366.853C293.453 365.563 294.35 365.035 295.479 365.625C296.35 366.213 296.995 367.079 297.309 368.081L297.69 369.309C298.971 373.32 301.601 376.765 305.132 379.059C309.639 381.662 313.324 379.538 313.324 374.319V372.747C313.324 371.151 314.454 370.475 315.78 371.286C316.435 371.689 316.986 372.24 317.389 372.894L320.987 378.408L316.934 380.68L319.182 384.536L323.431 382.08L325.273 384.917L321.405 387.152L323.627 391.02L327.717 388.662L329.559 391.499L325.875 393.635L328.098 397.504L332.015 395.244C334.299 398.605 337.266 401.446 340.722 403.582L341.435 403.975C343.799 405.524 345.59 407.806 346.531 410.471Z" fill="#D9DAE2"/>
<path opacity="0.1" d="M375.073 121.4L266.202 58.944V20.3725L375.073 82.8163V121.4Z" fill="black"/>
<path d="M243.777 55.653L230.366 47.9043L266.583 20.8146L279.994 28.551L243.777 55.653Z" fill="#003CE5"/>
<path d="M257.199 63.3894L243.776 55.653L279.993 28.551L293.404 36.2997L257.199 63.3894Z" fill="#F4F5F9"/>
<path d="M270.611 71.138L257.2 63.3894L293.404 36.2997L306.815 44.0361L270.611 71.138Z" fill="#003CE5"/>
<path d="M284.021 78.8744L270.61 71.138L306.815 44.0361L320.225 51.7848L284.021 78.8744Z" fill="#F4F5F9"/>
<path d="M297.432 86.6231L284.021 78.8744L320.226 51.7848L333.637 59.5212L297.432 86.6231Z" fill="#003CE5"/>
<path d="M310.843 94.3595L297.433 86.6231L333.637 59.5212L347.048 67.2698L310.843 94.3595Z" fill="#F4F5F9"/>
<path d="M324.254 102.108L310.843 94.3595L347.047 67.2698L360.458 75.0062L324.254 102.108Z" fill="#003CE5"/>
<path d="M337.665 109.845L324.254 102.108L360.458 75.0062L373.881 82.7549L337.665 109.845Z" fill="#F4F5F9"/>
<path d="M237.169 59.4229C240.854 61.5596 243.875 59.8282 243.875 55.5547L230.464 47.806C230.591 50.1327 231.265 52.3967 232.43 54.4148C233.595 56.433 235.218 58.1486 237.169 59.4229Z" fill="#003CE5"/>
<path d="M250.593 67.1593C254.277 69.3083 257.298 67.5646 257.298 63.2911L243.875 55.5547C244.003 57.881 244.678 60.1444 245.845 62.1608C247.012 64.1772 248.639 65.8897 250.593 67.1593Z" fill="#F4F5F9"/>
<path d="M264.04 74.908C267.725 77.0447 270.746 75.3132 270.746 71.0398L257.335 63.2911C257.46 65.6185 258.132 67.8835 259.297 69.9021C260.462 71.9207 262.087 73.6358 264.04 74.908Z" fill="#003CE5"/>
<path d="M277.414 82.6567C281.099 84.7934 284.12 83.0496 284.12 78.7762L270.709 71.0398C270.836 73.3667 271.509 75.631 272.674 77.6493C273.839 79.6676 275.463 81.3831 277.414 82.6567Z" fill="#F4F5F9"/>
<path d="M290.826 90.3931C294.51 92.5298 297.531 90.7983 297.531 86.5249L284.12 78.7762C284.245 81.1035 284.917 83.3686 286.082 85.3872C287.247 87.4058 288.872 89.1209 290.826 90.3931Z" fill="#003CE5"/>
<path d="M304.236 98.1418C307.92 100.278 310.941 98.547 310.941 94.2613L297.53 86.5249C297.657 88.8518 298.33 91.1161 299.495 93.1344C300.66 95.1527 302.284 96.8681 304.236 98.1418Z" fill="#F4F5F9"/>
<path d="M317.647 105.878C321.331 108.015 324.352 106.283 324.352 102.01L310.941 94.2613C311.06 96.59 311.73 98.8573 312.896 100.877C314.061 102.896 315.69 104.61 317.647 105.878Z" fill="#003CE5"/>
<path d="M331.058 113.627C334.742 115.764 337.763 114.032 337.763 109.746L324.353 102.01C324.479 104.337 325.152 106.601 326.317 108.619C327.482 110.638 329.106 112.353 331.058 113.627Z" fill="#F4F5F9"/>
<g opacity="0.15">
<path opacity="0.15" d="M250.593 67.1593C254.277 69.3083 257.298 67.5646 257.298 63.2911L243.875 55.5547C244.003 57.881 244.678 60.1444 245.845 62.1608C247.012 64.1772 248.639 65.8897 250.593 67.1593Z" fill="black"/>
<path opacity="0.15" d="M277.414 82.6567C281.099 84.7934 284.12 83.0496 284.12 78.7762L270.709 71.0398C270.836 73.3667 271.509 75.631 272.674 77.6493C273.839 79.6676 275.463 81.3831 277.414 82.6567Z" fill="black"/>
<path opacity="0.15" d="M304.236 98.1418C307.92 100.278 310.941 98.547 310.941 94.2613L297.53 86.5249C297.657 88.8518 298.33 91.1161 299.495 93.1344C300.66 95.1527 302.284 96.8681 304.236 98.1418Z" fill="black"/>
<path opacity="0.15" d="M331.057 113.627C334.741 115.764 337.762 114.032 337.762 109.746L324.352 102.01C324.478 104.337 325.151 106.601 326.316 108.619C327.481 110.638 329.105 112.353 331.057 113.627Z" fill="black"/>
</g>
<path opacity="0.4" d="M467.634 484.458L419.137 456.46L425.216 452.936L473.726 480.922L467.634 484.458Z" fill="#D6D8E5"/>
<path d="M486.375 473.898L437.681 445.776L443.772 390.246L480.296 411.331L486.375 473.898Z" fill="#345CCE"/>
<path d="M473.725 480.922L425.019 452.813L431.11 397.283L467.633 418.367L473.725 480.922Z" fill="#003CE5"/>
<path d="M473.725 480.922L486.375 473.898L480.295 411.331L467.634 418.367L473.725 480.922Z" fill="#0732AD"/>
<path d="M431.11 397.283L443.772 390.246L442.286 403.73L431.11 397.283Z" fill="#345CCE"/>
<path d="M458.497 412.964L456.249 411.662C456.249 406.419 453.167 400.377 449.372 398.154C445.577 395.932 442.507 398.449 442.507 403.693L440.247 402.391C440.247 395.723 444.349 392.653 449.372 395.551C454.395 398.449 458.497 406.296 458.497 412.964Z" fill="#20232D"/>
<path d="M470.36 405.707L468.112 404.405C468.112 399.161 465.03 393.12 461.235 390.897C457.44 388.674 454.37 391.192 454.37 396.435L452.11 395.134C452.11 388.466 456.212 385.396 461.235 388.294C466.258 391.192 470.36 399.1 470.36 405.707Z" fill="#20232D"/>
<path opacity="0.4" d="M424.012 519.972L354.134 479.657L362.902 474.561L432.781 514.888L424.012 519.972Z" fill="#D6D8E5"/>
<path d="M451.005 504.757L380.856 464.258L389.625 384.266L442.237 414.647L451.005 504.757Z" fill="#345CCE"/>
<path d="M432.78 514.888L362.619 474.389L371.388 394.397L424.012 424.765L432.78 514.888Z" fill="#003CE5"/>
<path d="M432.78 514.888L451.005 504.757L442.237 414.647L424.012 424.765L432.78 514.888Z" fill="#0732AD"/>
<path d="M371.388 394.397L389.625 384.266L387.488 403.693L371.388 394.397Z" fill="#345CCE"/>
<path d="M410.847 416.992L407.605 415.064C407.605 407.512 403.159 398.805 397.707 395.662C392.254 392.518 387.796 396.079 387.796 403.631L384.554 401.765C384.554 392.15 390.449 387.729 397.707 391.941C404.965 396.153 410.847 407.377 410.847 416.992Z" fill="#20232D"/>
<path d="M427.954 406.542L424.711 404.663C424.711 397.111 420.266 388.404 414.813 385.248C409.36 382.092 404.902 385.678 404.902 393.23L401.66 391.364C401.66 381.736 407.567 377.328 414.813 381.54C422.059 385.752 427.954 396.914 427.954 406.542Z" fill="#20232D"/>
<path opacity="0.4" d="M134.439 344.577L108.183 329.509L137.669 312.489L163.914 327.569L134.439 344.577Z" fill="#D6D8E5"/>
<path d="M138.701 309.984L110.541 293.725L138.701 277.467L166.861 293.725L138.701 309.984Z" fill="#EFDA86"/>
<path d="M164.958 326.955L138.701 342.109V311.789L164.958 296.636V326.955Z" fill="#D1B66B"/>
<path d="M138.701 342.109L112.444 326.955V296.636L138.701 311.789V342.109Z" fill="#E2C979"/>
<path opacity="0.1" d="M112.444 296.636V304.569L138.701 319.55V311.826L112.444 296.636Z" fill="black"/>
<path opacity="0.1" d="M164.958 296.636V305.133L138.701 319.55V311.826L164.958 296.636Z" fill="black"/>
<path d="M110.541 293.725V302.125L138.701 318.163V309.984L110.541 293.725Z" fill="#E2C979"/>
<path d="M138.701 318.163L166.861 302.788V293.725L138.701 309.984V318.163Z" fill="#D1B66B"/>
<path opacity="0.4" d="M478.036 518.609L454.334 505.015L481.008 489.616L504.71 503.222L478.036 518.609Z" fill="#D6D8E5"/>
<path d="M481.941 487.344L456.52 472.67L481.941 457.995L507.363 472.67L481.941 487.344Z" fill="#EFDA86"/>
<path d="M505.644 502.67L481.941 516.349V488.977L505.644 475.297V502.67Z" fill="#D1B66B"/>
<path d="M481.941 516.349L458.239 502.67V475.297L481.941 488.977V516.349Z" fill="#E2C979"/>
<path opacity="0.1" d="M458.239 475.297V482.457L481.941 495.989V489.014L458.239 475.297Z" fill="black"/>
<path opacity="0.1" d="M505.644 475.297V482.972L481.941 495.989V489.014L505.644 475.297Z" fill="black"/>
<path d="M456.52 472.67V480.259L481.941 494.737V487.344L456.52 472.67Z" fill="#E2C979"/>
<path d="M481.941 494.737L507.363 480.848V472.67L481.941 487.344V494.737Z" fill="#D1B66B"/>
<path opacity="0.4" d="M198.177 385.003L147.715 355.887L154.052 352.215L204.514 381.331L198.177 385.003Z" fill="#D6D8E5"/>
<path d="M217.68 374.012L167.009 344.761L173.346 286.996L211.343 308.94L217.68 374.012Z" fill="#345CCE"/>
<path d="M204.515 381.331L153.844 352.08L160.181 294.315L198.178 316.247L204.515 381.331Z" fill="#003CE5"/>
<path d="M204.515 381.331L217.68 374.012L211.343 308.94L198.178 316.247L204.515 381.331Z" fill="#0732AD"/>
<path d="M160.181 294.315L173.346 286.996L171.811 301.02L160.181 294.315Z" fill="#345CCE"/>
<path d="M188.672 310.684L186.339 309.333C186.339 303.869 183.121 297.581 179.179 295.309C175.237 293.038 172.031 295.616 172.031 301.069L169.686 299.718C169.686 292.78 173.947 289.587 179.179 292.608C184.41 295.629 188.672 303.684 188.672 310.684Z" fill="#20232D"/>
<path d="M201.026 303.083L198.693 301.732C198.693 296.28 195.475 289.98 191.533 287.708C187.591 285.436 184.386 288.015 184.386 293.467L182.04 292.117C182.04 285.178 186.302 281.986 191.533 285.007C196.765 288.027 201.026 296.132 201.026 303.083Z" fill="#20232D"/>
<path opacity="0.4" d="M53.5449 614C83.117 614 107.09 600.162 107.09 583.091C107.09 566.021 83.117 552.182 53.5449 552.182C23.9729 552.182 0 566.021 0 583.091C0 600.162 23.9729 614 53.5449 614Z" fill="#D6D8E5"/>
<path d="M14.2829 351.564C13.6811 356.771 7.47924 379.219 8.80558 386.906C10.1319 394.593 31.3411 407.45 31.3411 407.45L34.2885 394.286L22.5357 382.792L25.7164 361.032L14.2829 351.564Z" fill="#FFCEA9"/>
<path d="M30.7024 329.448C28.6396 328.49 26.2966 328.325 24.12 328.984C21.9434 329.644 20.0855 331.08 18.9004 333.021C15.7811 338.179 12.5389 355.911 12.2441 358.932C12.2441 358.932 16.6284 364.986 23.1865 363.967L30.7024 329.448Z" fill="#EDEDED"/>
<path d="M54.9077 579.702C59.5199 580.981 64.4507 580.385 68.6255 578.044C71.9291 578.142 89.8715 570.467 92.3154 576.914C94.4523 582.563 86.6908 587.794 82.4907 588.801C73.4273 591 66.7219 595.519 63.0868 596.28C60.3727 596.857 56.8603 597.226 54.6989 595.052C52.1445 592.535 52.3655 583.079 54.9077 579.702Z" fill="#2B2A30"/>
<path d="M63.1238 594.72C66.8081 593.947 73.4643 589.428 82.5277 587.23C86.0155 586.395 92.0086 582.588 92.6104 578.044C93.4209 583.251 86.4699 587.868 82.5277 588.801C73.4643 591 66.759 595.519 63.1238 596.28C60.4097 596.857 56.8974 597.226 54.7359 595.052C54.1617 594.434 53.741 593.689 53.5078 592.878C56.7009 595.58 60.4097 595.285 63.1238 594.72Z" fill="#9C73FF"/>
<path d="M25.7901 566.636C30.4023 567.915 35.3331 567.319 39.5079 564.978C42.8115 565.076 60.7539 557.389 63.1978 563.848C65.3347 569.497 57.5732 574.729 53.3731 575.735C44.3098 577.934 37.6044 582.453 33.9692 583.214C31.2551 583.791 27.7428 584.16 25.5813 581.986C23.0392 579.469 23.2602 570.001 25.7901 566.636Z" fill="#2B2A30"/>
<path d="M34.0183 581.642C37.7026 580.881 44.3589 576.362 53.4222 574.164C56.91 573.329 62.9031 569.51 63.5049 564.978C64.3154 570.185 57.303 574.802 53.4222 575.736C44.3589 577.934 37.6535 582.453 34.0183 583.214C31.3042 583.791 27.7919 584.16 25.6304 581.986C25.0537 581.374 24.6325 580.633 24.4023 579.825C27.5954 582.49 31.3042 582.219 34.0183 581.642Z" fill="#9C73FF"/>
<path d="M25.4458 517.884C26.2149 511.221 27.6004 504.644 29.5845 498.236C29.5845 498.236 28.3564 481.278 27.73 465.203C27.0177 446.992 20.6931 430.881 25.6914 416.292L81.9995 428.818C81.9995 428.818 78.5977 501.589 77.8363 510.394C77.4232 517.251 76.5823 524.075 75.3187 530.828C72.7397 544.95 68.5642 578.548 68.5642 578.548C62.6079 581.998 54.7972 580.083 54.7972 580.083C54.7972 580.083 55.2271 537.606 55.6078 527.426C56.0745 514.999 56.4552 515.944 56.4552 515.944L54.6008 485.06L53.3727 469.661C53.3727 469.661 51.813 480.958 50.8059 491.053C49.9217 499.857 47.7971 507.815 45.4146 524.209C43.3637 538.417 40.0233 566.98 40.0233 566.98C34.067 570.443 25.9861 567.569 25.9861 567.569C25.9861 567.569 23.8247 530.214 25.4458 517.884Z" fill="#003CE5"/>
<path d="M33.6617 329.755C37.9478 329.964 41.1408 331.069 41.6812 329.755C42.1388 327.541 42.4669 325.302 42.6636 323.05C42.1601 321.822 41.7426 320.471 41.7426 320.471C36.3512 317.156 34.6565 311.335 33.9442 304.507C32.7161 292.927 38.9916 282.796 50.5848 281.58C61.4658 280.451 69.4852 288.101 71.6221 298.6C72.7765 303.795 75.0608 313.594 71.966 322.129C70.2344 326.906 67.9992 330.725 65.7641 331.425C63.6094 331.37 61.4602 331.182 59.3289 330.86C59.3289 330.86 58.7517 334.077 58.3587 336.14C57.9657 338.204 58.1131 339.296 62.2272 341.826C66.3413 344.356 56.013 349.562 49.2585 349.059C42.504 348.556 34.9144 344.466 32.8389 340.107C30.5178 335.342 30.702 329.62 33.6617 329.755Z" fill="#FFCEA9"/>
<path d="M39.8637 330.393C38.6356 333.353 41.6935 336.975 49.6884 339.505C57.6833 342.035 58.4693 338.781 58.4693 338.781C58.4693 338.781 70.2836 344.159 74.1275 346.849C78.9539 350.226 81.1031 360 81.754 376.505C82.5031 395.612 82.5768 423.955 81.9382 428.842C81.9382 428.842 72.8994 437.843 61.3431 436.898C49.7867 435.952 30.3337 425.711 25.6055 417.815C25.7406 401.065 27.7055 398.339 24.9915 388.687C18.7773 366.583 15.5106 357.557 18.5317 342.882C20.9879 330.786 24.5002 329.276 29.2775 329.374C32.8222 329.52 36.3563 329.86 39.8637 330.393Z" fill="#F4F4F4"/>
<path d="M99.9917 392.309C90.4985 394.691 88.2757 388.711 87.023 383.713C84.0019 371.716 82.3808 360.885 80.1334 354.082C77.4807 346.05 74.7052 344.773 70.7999 343.214C66.2191 341.372 62.2769 345.24 63.812 355.494C65.605 367.59 67.9753 376.075 72.4947 390.369C73.7227 394.053 76.3263 400.746 80.2931 403.951C85.2054 407.905 92.574 407.733 103.713 404.97C108.466 403.742 113.685 400.942 122.687 396.742C125.143 395.612 126.985 394.863 131.615 392.702C136.245 390.541 141.071 386.943 143.503 383.418C145.935 379.894 145.517 377.671 145.014 376.873C144.387 375.866 144.043 376.664 142.742 378.101C140.865 380.6 138.552 382.738 135.913 384.413C135.913 384.413 138.91 381.319 140.543 379.305C141.994 377.52 143.2 375.55 144.129 373.447C144.989 371.396 143.221 368.609 141.87 370.07C140.519 371.531 139.892 373.017 137.436 375.965C136.144 377.531 134.667 378.937 133.04 380.152C134.561 378.093 135.916 375.917 137.092 373.644C138.652 370.463 133.408 372.121 130.473 375.215C128.299 377.463 126.457 378.764 126.408 378.138C126.359 377.512 122.122 382.055 119.973 384.278C117.639 386.881 109.006 390.037 99.9917 392.309Z" fill="#FFCEA9"/>
<path d="M67.2877 341.617C73.6247 340.684 78.1073 343.533 80.895 353.136C83.6828 362.739 85.66 370.61 85.66 370.61C83.1533 374.234 79.3505 376.758 75.037 377.659C67.4597 379.501 64.7333 375.879 64.7333 375.879C64.7333 375.879 62.6333 365.821 61.3192 358.969C60.0051 352.117 59.4525 342.784 67.2877 341.617Z" fill="#EDEDED"/>
<path d="M71.2299 297.176C71.2299 297.176 81.2389 281.949 59.5507 278.854C43.9048 276.619 33.859 286.664 32.6923 297.569C31.587 307.995 37.9977 318.813 42.6398 323.099C44.8995 323.91 49.7628 324.327 56.1489 321.466C56.4093 318.629 56.5118 315.78 56.4559 312.931C56.4559 312.931 48.854 296.894 71.2299 297.176Z" fill="#3A2C6D"/>
<path d="M122.073 380.349C122.073 380.349 119.617 375.866 121.164 374.749C122.711 373.631 124.959 377.831 125.413 379.477C125.868 381.122 125.241 378.973 125.241 378.973C125.241 378.973 123.559 373.914 124.652 372.944C125.745 371.974 127.218 374.172 128.68 377.315C130.141 380.459 129.048 377.033 129.048 377.033C129.048 377.033 126.592 371.961 127.661 371.261C129.048 370.316 131.345 373.324 132.708 376.038C134.071 378.752 130.878 381.957 130.878 381.957L122.073 380.349Z" fill="#FFCEA9"/>
<path d="M126.814 388.355L117.615 383.038C116.842 382.596 116.94 381.81 117.836 381.294L140.003 368.461C140.464 368.205 140.979 368.06 141.505 368.039C142.032 368.017 142.557 368.12 143.037 368.339L152.235 373.644C153.009 374.098 152.911 374.872 152.014 375.4L129.798 388.22C129.345 388.471 128.839 388.613 128.322 388.637C127.804 388.66 127.288 388.564 126.814 388.355Z" fill="#B1B4C4"/>
<path d="M117.087 382.276V381.429L118.082 381.797L117.087 382.276Z" fill="#B1B4C4"/>
<path d="M152.8 374.38V373.57L152.014 374.073L152.8 374.38Z" fill="#B1B4C4"/>
<path d="M126.814 387.631L117.615 382.326C116.842 381.871 116.94 381.098 117.836 380.57L140.003 367.749C140.464 367.493 140.979 367.348 141.505 367.326C142.032 367.305 142.557 367.408 143.037 367.626L152.235 372.931C153.009 373.386 152.911 374.159 152.014 374.687L129.798 387.508C129.344 387.757 128.838 387.897 128.32 387.918C127.803 387.94 127.287 387.841 126.814 387.631Z" fill="#616E84"/>
<path d="M119.193 384.943C119.24 384.916 119.24 384.828 119.193 384.745C119.145 384.663 119.069 384.618 119.022 384.645C118.975 384.672 118.975 384.761 119.022 384.843C119.07 384.926 119.146 384.97 119.193 384.943Z" fill="#757B89"/>
<path d="M119.167 383.67C119.214 383.643 119.214 383.554 119.166 383.472C119.119 383.39 119.042 383.345 118.995 383.372C118.948 383.399 118.949 383.488 118.996 383.57C119.044 383.652 119.12 383.697 119.167 383.67Z" fill="#757B89"/>
<path d="M119.605 383.93C119.652 383.903 119.651 383.814 119.604 383.732C119.556 383.65 119.48 383.605 119.433 383.632C119.386 383.659 119.386 383.748 119.434 383.83C119.481 383.912 119.558 383.957 119.605 383.93Z" fill="#757B89"/>
<path d="M120.055 384.19C120.102 384.163 120.101 384.074 120.054 383.992C120.007 383.91 119.93 383.865 119.883 383.892C119.836 383.919 119.836 384.008 119.884 384.09C119.931 384.173 120.008 384.217 120.055 384.19Z" fill="#757B89"/>
<path d="M123.852 386.382C123.899 386.355 123.898 386.267 123.851 386.184C123.803 386.102 123.727 386.057 123.68 386.085C123.633 386.112 123.633 386.2 123.681 386.283C123.728 386.365 123.805 386.409 123.852 386.382Z" fill="#757B89"/>
<path d="M124.283 386.632C124.33 386.605 124.33 386.516 124.283 386.434C124.235 386.352 124.158 386.307 124.111 386.334C124.064 386.361 124.065 386.45 124.112 386.532C124.16 386.614 124.236 386.659 124.283 386.632Z" fill="#757B89"/>
<path d="M124.734 386.892C124.781 386.865 124.78 386.776 124.733 386.694C124.685 386.612 124.609 386.567 124.562 386.594C124.515 386.621 124.515 386.71 124.563 386.792C124.61 386.874 124.687 386.919 124.734 386.892Z" fill="#757B89"/>
<path d="M125.669 388.69C125.716 388.663 125.715 388.574 125.668 388.492C125.621 388.41 125.544 388.365 125.497 388.392C125.45 388.419 125.45 388.508 125.498 388.59C125.545 388.672 125.622 388.717 125.669 388.69Z" fill="#757B89"/>
<path d="M122.478 385.666L121.25 384.966C121.209 384.934 121.175 384.893 121.152 384.846C121.128 384.799 121.116 384.748 121.115 384.696C121.115 384.597 121.177 384.548 121.25 384.597L122.478 385.297C122.52 385.327 122.554 385.365 122.577 385.41C122.601 385.455 122.613 385.505 122.614 385.555C122.614 385.666 122.552 385.715 122.478 385.666Z" fill="#757B89"/>
<path d="M150.025 376.394L148.895 377.045C148.821 377.045 148.76 377.045 148.76 376.947C148.763 376.899 148.777 376.852 148.8 376.809C148.823 376.767 148.856 376.73 148.895 376.701L150.025 376.05C150.098 376.05 150.148 376.05 150.148 376.149C150.15 376.197 150.139 376.244 150.118 376.287C150.096 376.33 150.064 376.367 150.025 376.394Z" fill="#757B89"/>
<path d="M148.293 377.401L147.163 378.052C147.09 378.052 147.028 378.052 147.028 377.954C147.029 377.905 147.041 377.857 147.065 377.814C147.088 377.771 147.122 377.735 147.163 377.708L148.293 377.045C148.367 377.045 148.416 377.045 148.416 377.143C148.416 377.193 148.405 377.242 148.384 377.286C148.363 377.331 148.332 377.37 148.293 377.401Z" fill="#757B89"/>
<path d="M126.814 387.508L117.615 382.191C116.842 381.748 116.94 380.962 117.836 380.447L140.003 367.614C140.465 367.36 140.979 367.217 141.506 367.196C142.032 367.174 142.556 367.276 143.037 367.491L152.235 372.796C153.009 373.251 152.911 374.024 152.014 374.552L129.798 387.373C129.345 387.623 128.839 387.766 128.322 387.789C127.804 387.813 127.288 387.716 126.814 387.508Z" fill="#20232D"/>
<path d="M151.289 373.017L147.703 370.942C147.465 371.063 147.202 371.126 146.936 371.126C146.669 371.126 146.406 371.063 146.168 370.942C146.076 370.911 145.995 370.851 145.938 370.772C145.881 370.693 145.851 370.598 145.851 370.5C145.851 370.402 145.881 370.307 145.938 370.228C145.995 370.149 146.076 370.089 146.168 370.058L142.582 367.983C142.276 367.825 141.937 367.743 141.593 367.743C141.249 367.743 140.911 367.825 140.605 367.983L118.966 380.471C118.846 380.511 118.741 380.588 118.667 380.69C118.594 380.793 118.554 380.916 118.554 381.042C118.554 381.169 118.594 381.292 118.667 381.394C118.741 381.497 118.846 381.573 118.966 381.613L127.685 386.636C127.991 386.793 128.33 386.875 128.674 386.875C129.018 386.875 129.357 386.793 129.662 386.636L151.289 374.147C151.411 374.111 151.518 374.036 151.593 373.934C151.669 373.833 151.71 373.709 151.71 373.582C151.71 373.455 151.669 373.332 151.593 373.23C151.518 373.128 151.411 373.054 151.289 373.017Z" fill="#2B303F"/>
<path opacity="0.5" d="M151.289 373.017L147.703 370.942C147.465 371.063 147.202 371.126 146.936 371.126C146.669 371.126 146.406 371.063 146.168 370.942C146.076 370.911 145.995 370.851 145.938 370.772C145.881 370.693 145.851 370.598 145.851 370.5C145.851 370.402 145.881 370.307 145.938 370.228C145.995 370.149 146.076 370.089 146.168 370.058L142.582 367.983C142.276 367.825 141.937 367.743 141.593 367.743C141.249 367.743 140.911 367.825 140.605 367.983L118.966 380.471C118.846 380.511 118.741 380.588 118.667 380.69C118.594 380.793 118.554 380.916 118.554 381.042C118.554 381.169 118.594 381.292 118.667 381.394C118.741 381.497 118.846 381.573 118.966 381.613L127.685 386.636C127.991 386.793 128.33 386.875 128.674 386.875C129.018 386.875 129.357 386.793 129.662 386.636L151.289 374.147C151.411 374.111 151.518 374.036 151.593 373.934C151.669 373.833 151.71 373.709 151.71 373.582C151.71 373.455 151.669 373.332 151.593 373.23C151.518 373.128 151.411 373.054 151.289 373.017Z" fill="url(#paint0_linear_742_25398)"/>
<path d="M146.696 370.868C146.926 370.868 147.113 370.764 147.113 370.635C147.113 370.506 146.926 370.402 146.696 370.402C146.465 370.402 146.278 370.506 146.278 370.635C146.278 370.764 146.465 370.868 146.696 370.868Z" fill="#2B303F"/>
<path opacity="0.1" d="M146.574 370.709C146.5 370.709 146.5 370.61 146.574 370.574C146.61 370.549 146.653 370.536 146.697 370.536C146.74 370.536 146.783 370.549 146.819 370.574C146.833 370.579 146.844 370.589 146.852 370.601C146.859 370.613 146.864 370.627 146.864 370.641C146.864 370.655 146.859 370.669 146.852 370.681C146.844 370.693 146.833 370.703 146.819 370.709C146.781 370.727 146.739 370.737 146.697 370.737C146.654 370.737 146.612 370.727 146.574 370.709Z" fill="white"/>
<path d="M141.108 386.231C141.108 386.231 146.02 381.847 145.738 376.038C145.443 371.986 142.999 374.908 142.999 374.908L140.543 379.366C140.543 379.366 138.087 382.547 135.827 383.271C134.1 383.437 132.382 383.691 130.681 384.032C127.66 384.622 124.651 388.392 124.651 388.392L128.544 391.376L141.108 386.231Z" fill="#FFCEA9"/>
<path d="M521.535 170.201L492.675 153.5C492.206 153.183 491.672 152.979 491.111 152.902C490.551 152.826 489.981 152.879 489.445 153.058C489.211 153.153 488.992 153.281 488.794 153.439L483.501 156.472L487.185 161.58V189.001C487.185 193.029 489.641 197.708 492.663 199.452L518.121 214.188L518.956 219.947C519.128 219.861 523.512 217.344 524.9 216.533C525.034 216.472 525.161 216.398 525.281 216.312C525.872 215.779 526.329 215.114 526.617 214.372C526.905 213.63 527.015 212.831 526.939 212.039V180.651C527 176.623 524.556 171.92 521.535 170.201Z" fill="#D9DAE2"/>
<path d="M515.566 219.579L486.706 202.915C483.685 201.171 481.241 196.492 481.241 192.464V161.089C481.241 157.061 483.697 155.219 486.706 156.963L515.566 173.615C518.588 175.358 521.044 180.049 521.044 184.077V215.44C521.044 219.468 518.588 221.322 515.566 219.579Z" fill="#EFF0F9"/>
<path d="M489.752 172.841C489.752 171.073 490.255 169.931 491.25 169.403C492.245 168.875 493.547 169.071 495.156 170.004C496.784 170.945 498.142 172.29 499.098 173.909C500.07 175.499 500.585 177.326 500.584 179.19V180.614C500.584 182.395 500.092 183.537 499.098 184.053C498.103 184.568 496.801 184.347 495.192 183.414C493.561 182.477 492.202 181.131 491.25 179.509C490.274 177.925 489.756 176.102 489.752 174.241V172.841ZM493.043 176.267C493.043 177.054 493.246 177.828 493.633 178.514C493.989 179.191 494.53 179.753 495.192 180.135C495.831 180.504 496.335 180.553 496.715 180.283C496.928 180.072 497.09 179.815 497.188 179.532C497.286 179.249 497.318 178.947 497.28 178.649V177.188C497.28 176.404 497.086 175.632 496.715 174.941C496.363 174.258 495.821 173.691 495.156 173.308C494.951 173.148 494.706 173.049 494.447 173.021C494.189 172.992 493.929 173.036 493.694 173.148C493.301 173.406 493.105 173.958 493.105 174.818L493.043 176.267ZM496.15 197.708L493.694 194.81L505.975 179.288L508.431 182.186L496.15 197.708ZM501.664 195.989C501.664 194.208 502.168 193.066 503.175 192.55C504.182 192.035 505.484 192.256 507.08 193.177C508.698 194.117 510.05 195.452 511.01 197.057C511.997 198.655 512.516 200.497 512.509 202.374V203.799C512.509 205.555 512.017 206.709 511.035 207.225C510.052 207.741 508.751 207.532 507.117 206.586C505.479 205.649 504.116 204.298 503.163 202.669C502.195 201.099 501.677 199.294 501.664 197.45V195.989ZM504.956 199.427C504.972 200.208 505.183 200.972 505.57 201.65C505.925 202.333 506.46 202.906 507.117 203.308C508.505 204.118 509.205 203.627 509.205 201.846V200.336C509.204 199.554 509.006 198.785 508.628 198.101C508.272 197.428 507.736 196.867 507.08 196.48C506.868 196.307 506.609 196.2 506.337 196.172C506.064 196.144 505.789 196.195 505.545 196.32C505.32 196.521 505.149 196.774 505.046 197.056C504.943 197.339 504.912 197.643 504.956 197.941V199.427Z" fill="#003CE5"/>
<path d="M152.357 82.6935L123.497 66.0296C123.029 65.713 122.494 65.5085 121.934 65.4319C121.374 65.3552 120.803 65.4085 120.267 65.5875C120.036 65.6883 119.818 65.8161 119.616 65.9682L114.323 69.0013L118.008 74.1098V101.531C118.008 105.559 120.464 110.238 123.473 111.981L148.931 126.717L149.778 132.489L155.71 129.063C155.841 129.001 155.968 128.931 156.091 128.854C156.687 128.324 157.149 127.661 157.44 126.918C157.73 126.175 157.84 125.374 157.761 124.581V93.1438C157.835 89.116 155.378 84.4373 152.357 82.6935Z" fill="#D9DAE2"/>
<path d="M146.401 132.071L117.541 115.432C114.52 113.688 112.063 109.01 112.063 104.982V73.594C112.063 69.5662 114.52 67.7119 117.541 69.4557L146.401 86.1196C149.422 87.8634 151.866 92.5421 151.866 96.5699V127.933C151.866 131.961 149.422 133.852 146.401 132.071Z" fill="#EFF0F9"/>
<path d="M131.971 85.9477L135.876 97.3558L144.632 103.877L138.296 107.352L139.794 118.269L131.971 109.01L124.136 109.231L125.634 100.033L119.297 89.251L128.053 92.8368L131.971 85.9477Z" fill="#F9CB07"/>
</g>
<defs>
<linearGradient id="paint0_linear_742_25398" x1="113.001" y1="394.682" x2="124.775" y2="374.194" gradientUnits="userSpaceOnUse">
<stop offset="0.21" stop-color="white" stop-opacity="0"/>
<stop offset="1" stop-color="white" stop-opacity="0.2"/>
</linearGradient>
<clipPath id="clip0_742_25398">
<rect width="527" height="614" fill="white"/>
</clipPath>
</defs>
</svg>
