<svg width="237" height="88" viewBox="0 0 237 88" fill="none" xmlns="http://www.w3.org/2000/svg">
<path fill-rule="evenodd" clip-rule="evenodd" d="M229.895 56.7002C230.373 57.232 230.185 58.295 229.345 59.889C223.005 72.1814 203.204 76.6421 198.444 62.7192C196.506 56.905 198.296 50.1247 201.654 45.1534C209.61 33.3724 224.217 38.8908 220.379 42.724C219.92 43.1827 206.666 43.576 207.407 57.4392C207.682 62.6001 213.271 63.3183 220.757 59.932C221.329 59.6732 222.423 59.1136 224.078 58.295C225.268 57.6772 226.152 57.2608 226.748 57.0304C228.386 56.3271 229.446 56.2259 229.895 56.7002Z" fill="#662D52"/>
<path fill-rule="evenodd" clip-rule="evenodd" d="M115.718 42.0428C115.992 42.0595 116.229 42.3179 116.409 42.8006C116.523 43.051 116.618 43.3507 116.692 43.7083C116.74 43.9996 116.788 44.4168 116.825 44.9496C116.958 47.1479 116.589 49.7128 115.718 52.6611C114.244 57.6668 107.547 72.8178 101.525 78.2783C90.2202 88.5301 85.2005 40.5912 85.2051 40.5933C86.4609 41.1317 90.2272 44.7075 91.0747 46.3542C93.6041 51.2659 94.2284 60.7059 95.79 65.4451C98.9426 75.0123 102.113 69.9436 113.805 44.483C113.932 44.2065 114.118 43.8583 114.363 43.4422C114.525 43.1255 114.686 42.8674 114.827 42.6592C115.158 42.2178 115.462 42.0176 115.718 42.0428Z" fill="#662D52"/>
<path fill-rule="evenodd" clip-rule="evenodd" d="M26.2146 50.0001C27.7626 54.4902 28.6013 60.0398 25.9263 62.3184C23.8346 64.0996 20.7012 64.4886 18.6882 62.4948C17.6357 61.3937 17.1266 60.1292 16.6882 58.8829C13.4005 49.533 7.02003 55.0494 12.4302 65.0752C13.257 66.4964 14.2144 67.7038 15.3316 68.6947C16.9419 70.0881 18.726 70.9643 20.6848 71.2945C22.8608 71.7251 25.0515 71.51 27.2272 70.6626C28.1846 70.3036 29.1136 69.8723 29.9838 69.3699C30.5496 68.9957 30.9845 68.7231 31.2599 68.5225C31.797 68.1341 32.1888 67.8323 32.4065 67.6317L32.8421 67.3009L33.3932 66.8844C33.784 66.5113 34.2053 66.0952 34.6693 65.6209C35.1396 65.078 35.5637 64.5094 35.9377 63.9205C35.9188 63.812 35.9024 63.7036 35.888 63.5948C35.8443 63.2074 35.8159 62.9777 35.8159 62.9199C35.7865 62.8194 35.7722 62.6039 35.7722 62.2879C35.7432 62.0724 35.7432 61.6418 35.7722 61.0383C35.7722 60.9239 35.8159 60.5788 35.888 60.0183V59.8035L35.9314 59.6881V59.5159V59.4726L35.9751 59.4296C35.9751 59.3721 35.9902 59.3001 36.0185 59.2287C36.0185 59.1137 36.0336 59.0416 36.0623 59.0132C36.2071 58.3092 36.3233 57.7635 36.4104 57.3755C36.7845 55.6737 37.1973 54.2203 37.6494 52.999C37.3454 51.4957 36.8597 49.954 36.1928 48.3689C35.424 46.6023 34.4373 44.7924 33.219 42.9396C32.6819 42.1205 32.1017 41.2876 31.4778 40.4544L31.3036 40.1956L31.2165 40.1093L31.0139 39.8225L30.883 39.6932L30.4628 39.1905L29.6066 38.1848C26.8647 34.838 26.4494 34.7219 25.1723 32.394C19.4986 21.9237 30.5856 18.3933 34.5808 22.9676C35.6641 24.2093 35.114 24.456 36.3453 25.9107C40.1421 30.3915 43.8 22.5809 39.8087 17.4887C33.2158 9.07731 7.46965 14.0175 16.812 33.8104C19.6578 39.8387 24.1047 43.883 26.2146 50.0001Z" fill="#662D52"/>
<path fill-rule="evenodd" clip-rule="evenodd" d="M58.5501 38.8017C60.3304 41.5055 61.8402 45.5393 62.2275 51.5448C64.23 50.6101 65.9383 51.8753 62.4252 54.2313C57.6844 77.1527 32.8302 80.1347 34.7238 54.673C35.3096 46.8039 38.6942 38.8031 44.1519 35.2488C49.7245 31.6186 54.9702 33.3626 58.5501 38.8017ZM40.4752 56.0876C40.4752 56.0876 47.4298 60.8739 53.3988 59.6523C51.3197 66.8556 38.6627 73.6905 40.4752 56.0876ZM54.7795 54.0366C51.9796 54.0255 43.0165 52.1965 43.0473 49.1761C43.0749 46.5326 45.0326 41.8994 48.0282 41.2609C54.4118 39.9003 55.1452 51.0435 54.7795 54.0366Z" fill="#662D52"/>
<path fill-rule="evenodd" clip-rule="evenodd" d="M61.2058 56.7317C61.2058 56.7317 67.8032 51.6436 70.467 45.9779C59.563 31.2122 86.7528 21.5765 79.0494 43.341C86.5313 49.1131 74.3635 67.4065 81.0998 65.4216C82.9207 64.8853 88.334 60.4166 89.6931 61.2582C92.176 62.9524 82.1782 73.5724 77.092 70.6441C72.1052 67.773 70.8673 57.5417 72.9919 52.8614C73.3771 52.0115 59.7204 62.8834 61.2058 56.7317ZM74.7592 41.2907C68.0845 36.196 78.2925 31.9415 74.7592 41.2907V41.2907Z" fill="#662D52"/>
<path fill-rule="evenodd" clip-rule="evenodd" d="M154.016 39.071C154.016 39.071 157.188 22.7559 158.816 21.9749C164.053 19.997 160.928 35.5925 160.741 38.4338C160.717 38.7959 169.58 37.5521 168.782 40.2486C167.845 43.4104 162.967 45.002 159.706 45.3266C157.735 51.5456 151.805 74.2817 166.955 64.9054C166.955 64.9054 171.691 62.7078 167.744 68.9593C160.398 77.7615 147.746 70.7533 149.592 59.0943L152.399 45.847C141.864 46.102 145.136 40.0196 154.016 39.071Z" fill="#662D52"/>
<path fill-rule="evenodd" clip-rule="evenodd" d="M174.075 37.7831C181.225 33.118 189.674 36.7839 189.287 44.4033C188.843 53.1697 180.755 57.5479 173.368 58.5187C177.686 74.1946 198.084 54.2143 199.511 55.7159C199.511 55.7159 201.989 56.7168 194.942 64.3039C172.121 88.8779 150.919 52.8888 174.075 37.7831ZM174.356 51.9402C192.391 46.9376 176.609 36.0058 174.356 51.9402V51.9402Z" fill="#662D52" stroke="#662D52" stroke-width="0.0202" stroke-miterlimit="22.9256"/>
<path fill-rule="evenodd" clip-rule="evenodd" d="M124.716 38.4016C131.866 33.7362 140.315 37.4017 139.929 45.021C139.484 53.7882 131.396 58.1657 124.011 59.1372C128.327 74.8124 148.726 54.8328 150.153 56.3347C150.153 56.3347 152.63 57.3353 145.584 64.9227C122.763 89.4957 101.561 53.5072 124.716 38.4016ZM124.998 52.5579C127.25 36.6236 143.033 47.5554 124.998 52.5579V52.5579Z" fill="#662D52"/>
<path fill-rule="evenodd" clip-rule="evenodd" d="M87.5072 21.2175C81.955 39.4818 127.938 24.5972 118.005 47.7494C103.653 36.7923 68.623 49.4609 87.5072 21.2175Z" fill="#E19938"/>
<path fill-rule="evenodd" clip-rule="evenodd" d="M120.003 36.9901C128.944 12.5187 89.2713 28.9827 93.8827 10.7174C77.4076 38.131 108.082 26.0326 120.003 36.9901Z" fill="#B0723A"/>
<path fill-rule="evenodd" clip-rule="evenodd" d="M118.345 23.5852C123.51 6.97806 97.4984 19.2652 99.9725 6.93787C89.8628 25.7555 109.994 16.6758 118.345 23.5852Z" fill="#F9CD81"/>
</svg>
