<svg width="243" height="60" viewBox="0 0 243 60" fill="none" xmlns="http://www.w3.org/2000/svg">
<path fill-rule="evenodd" clip-rule="evenodd" d="M11.6025 4.96065C19.7006 2.33079 25.6784 3.41824 30.0982 7.75776C34.9061 12.4771 43.991 24.0284 47.964 30.2735L42.6529 40.6952C31.6713 62.2433 34.5452 2.42646 11.6025 4.96065Z" fill="#14A0D3"/>
<path fill-rule="evenodd" clip-rule="evenodd" d="M11.5361 5.14489C17.7851 2.61565 22.7485 3.92173 26.4866 6.86801C31.1113 10.5127 43.6367 29.8561 46.243 34.8685L41.9989 43.6627C41.9989 43.6627 31.6578 20.6604 27.2412 11.5502C24.2854 5.4528 18.7361 4.34941 11.5361 5.14489V5.14489Z" fill="#FFF212"/>
<path fill-rule="evenodd" clip-rule="evenodd" d="M11 4.96815C14.8214 3.72833 18.0973 3.97034 20.6765 4.95539C25.5344 6.81174 28.2646 11.8163 31.2959 17.5927L43.9468 38.8488L39.8275 45.3537C39.8275 45.3537 30.201 22.1753 25.7841 13.0643C22.8283 6.96659 18.2 4.17302 11 4.96815V4.96815Z" fill="#EC268F"/>
<path fill-rule="evenodd" clip-rule="evenodd" d="M217.284 19.2219C219.989 19.2219 222.272 19.4239 224.134 19.8282C225.996 20.2325 227.412 20.9146 228.382 21.8755C228.841 22.3301 229.211 22.8354 229.491 23.3914C229.772 23.9477 229.964 24.6046 230.065 25.3629C230.167 26.1208 230.231 27.0183 230.257 28.0544C230.283 29.0908 230.294 30.3161 230.294 31.7317H228.765C228.56 28.4966 227.527 26.108 225.664 24.567C223.803 23.025 221.519 22.2543 218.816 22.2543C216.877 22.2543 215.218 22.6586 213.84 23.4672C212.463 24.2761 211.314 25.3753 210.397 26.7657C209.478 28.1554 208.802 29.7981 208.369 31.6938C207.935 33.5887 207.718 35.6233 207.718 37.7968C207.718 39.9703 207.935 42.0049 208.369 43.9005C208.802 45.7955 209.478 47.4382 210.397 48.8286C211.314 50.2183 212.463 51.3178 213.84 52.1264C215.218 52.935 216.877 53.3396 218.816 53.3396C221.519 53.3396 223.713 52.8088 225.397 51.7476C227.081 50.6864 228.585 49.195 229.913 47.2742L231.443 48.4116C229.708 51.2926 227.681 53.3396 225.359 54.5525C223.038 55.7654 220.346 56.3724 217.284 56.3724C214.427 56.3724 211.94 55.8791 209.822 54.8937C207.706 53.9083 205.958 52.5814 204.581 50.9135C203.202 49.2453 202.169 47.2869 201.48 45.0376C200.791 42.7883 200.447 40.3746 200.447 37.7968C200.447 35.219 200.791 32.8057 201.48 30.5563C202.169 28.307 203.202 26.3483 204.581 24.6804C205.958 23.0126 207.706 21.6853 209.822 20.6998C211.94 19.7144 214.427 19.2219 217.284 19.2219V19.2219Z" fill="black"/>
<path fill-rule="evenodd" clip-rule="evenodd" d="M196.973 39.0188H173.782C173.782 41.0913 174.012 43.0114 174.471 44.781C174.931 46.5494 175.607 48.0787 176.5 49.3678C177.393 50.6565 178.476 51.655 179.752 52.3626C181.028 53.0699 182.481 53.4239 184.114 53.4239C186.615 53.4239 188.694 52.8931 190.352 51.8318C192.01 50.7703 193.502 49.2792 194.828 47.3587L196.36 48.4958C194.625 51.3772 192.622 53.4239 190.352 54.6371C188.081 55.85 185.492 56.4562 182.584 56.4562C179.88 56.4562 177.533 55.9637 175.542 54.9783C173.553 53.9929 171.882 52.6656 170.53 50.9981C169.178 49.3299 168.169 47.3711 167.506 45.1218C166.843 42.8725 166.513 40.4591 166.513 37.8814C166.513 35.3036 166.856 32.8899 167.546 30.6406C168.235 28.3913 169.242 26.4329 170.568 24.765C171.894 23.0968 173.502 21.7698 175.389 20.7844C177.278 19.799 179.42 19.3058 181.818 19.3058C187.022 19.3058 190.876 20.7465 193.375 23.6276C195.874 26.5083 197.125 30.6282 197.125 35.9857L196.973 39.0188V39.0188ZM189.854 35.9017C189.854 31.5041 189.191 28.1305 187.864 25.7802C186.538 23.4299 184.523 22.2549 181.818 22.2549C180.645 22.2549 179.573 22.5958 178.604 23.2782C177.634 23.9603 176.793 24.9085 176.078 26.121C175.364 27.3346 174.803 28.7753 174.395 30.4428C173.986 32.111 173.782 33.9309 173.782 35.9017H189.854V35.9017Z" fill="black"/>
<path fill-rule="evenodd" clip-rule="evenodd" d="M148.607 23.0128H143.25V19.9801H148.607V13.1567L152.434 8.60742H155.496V19.9801H164.679V23.0128H155.496V46.5161C155.496 51.0651 157.282 53.3395 160.853 53.3395C162.179 53.3395 163.276 53.1882 164.142 52.8849C165.011 52.5816 165.827 52.228 166.593 51.8237L167.357 53.3395C166.95 53.6436 166.477 53.972 165.941 54.3256C165.406 54.6793 164.755 55.0077 163.989 55.311C163.225 55.6144 162.332 55.867 161.313 56.0697C160.291 56.2713 159.118 56.3723 157.792 56.3723C155.087 56.3723 152.881 55.5888 151.171 54.0223C149.462 52.4555 148.607 49.9535 148.607 46.5161V23.0128V23.0128Z" fill="black"/>
<path fill-rule="evenodd" clip-rule="evenodd" d="M139.168 55.6136H135.341L132.662 52.5812H132.28C131.311 53.5415 129.984 54.4135 128.301 55.1969C126.617 55.98 124.627 56.3719 122.331 56.3719C120.698 56.3719 119.104 56.1827 117.547 55.8032C115.991 55.4244 114.601 54.7168 113.376 53.6807C112.152 52.6443 111.169 51.2415 110.43 49.4727C109.69 47.7035 109.32 45.4542 109.32 42.7248V29.0776C109.32 26.8028 109.001 24.9705 108.363 23.5808C107.725 22.1911 106.259 21.4959 103.962 21.4959H103.197V19.9797H109.32C110.647 19.9797 111.756 20.0935 112.649 20.321C113.542 20.5481 114.257 21.0031 114.792 21.6851C115.328 22.3676 115.698 23.303 115.902 24.4911C116.106 25.6785 116.208 27.2078 116.208 29.0776V42.7248C116.208 44.6456 116.451 46.2507 116.935 47.5394C117.42 48.8281 118.058 49.877 118.848 50.6856C119.639 51.4945 120.532 52.076 121.527 52.4296C122.522 52.7832 123.555 52.96 124.627 52.96C126.157 52.96 127.573 52.5557 128.874 51.7475C130.175 50.9389 131.311 50.0035 132.28 48.9415V19.9797H139.168V55.6136V55.6136Z" fill="black"/>
<path fill-rule="evenodd" clip-rule="evenodd" d="M102.662 46.5162C102.662 48.1331 102.318 49.5486 101.629 50.7615C100.94 51.9747 100.009 52.9981 98.8357 53.8325C97.6622 54.6663 96.2461 55.298 94.588 55.7282C92.9301 56.1576 91.1568 56.3724 89.269 56.3724C86.2084 56.3724 83.7082 56.107 81.7689 55.5765C79.8303 55.0454 78.376 54.2999 77.4067 53.3396C76.4374 52.379 75.8759 51.2926 75.7228 50.0794C75.5697 48.8665 75.4932 47.2993 75.4932 45.3785H77.024C77.4321 47.8553 78.5034 49.8013 80.2384 51.2168C81.9732 52.6317 84.4733 53.3396 87.7385 53.3396C90.6467 53.3396 92.7771 52.834 94.1287 51.8231C95.4811 50.8122 96.1571 49.5486 96.1571 48.0328C96.1571 46.5162 95.583 45.2396 94.4352 44.2035C93.2871 43.1678 91.5656 42.1693 89.269 41.209L84.6775 39.3133C81.7689 38.1508 79.5109 36.7735 77.9043 35.1811C76.2969 33.5887 75.4932 31.5549 75.4932 29.0781C75.4932 27.4605 75.8122 26.045 76.4499 24.8321C77.088 23.6188 77.9679 22.5955 79.0903 21.7618C80.213 20.9273 81.5393 20.2956 83.0701 19.8661C84.601 19.4359 86.2842 19.2219 88.1212 19.2219C91.0295 19.2219 93.4273 19.487 95.3155 20.0178C97.2033 20.5482 98.6315 21.2944 99.6011 22.2543C100.57 23.2146 101.132 24.3016 101.285 25.5145C101.438 26.7274 101.515 28.2943 101.515 30.2151H99.9838C99.5757 27.7383 98.5167 25.7923 96.808 24.3775C95.0984 22.9619 92.7134 22.2543 89.6517 22.2543C87.1519 22.2543 85.2512 22.7596 83.95 23.7709C82.6492 24.7818 81.9989 26.045 81.9989 27.5615C81.9989 28.8754 82.5343 30.0762 83.6056 31.1633C84.6775 32.2497 86.1823 33.1972 88.1212 34.0058L92.7134 35.9015C95.9786 37.2157 98.453 38.6564 100.137 40.2229C101.821 41.7901 102.662 43.8878 102.662 46.5162V46.5162Z" fill="black"/>
<path fill-rule="evenodd" clip-rule="evenodd" d="M70.3901 55.6136H63.502V29.0776C63.502 26.8028 63.1833 24.9705 62.5456 23.5808C61.9075 22.1911 60.441 21.4959 58.1451 21.4959H56.6143V19.9797H63.502C64.829 19.9797 65.9385 20.0935 66.8316 20.321C67.7243 20.5481 68.4386 21.0031 68.974 21.6851C69.5102 22.3676 69.88 23.303 70.0843 24.4911C70.2881 25.6785 70.3901 27.2078 70.3901 29.0776V55.6136V55.6136Z" fill="black"/>
<path fill-rule="evenodd" clip-rule="evenodd" d="M39.8272 45.0003C41.1027 42.0689 42.1614 39.6679 43.0034 37.7978C43.845 35.9276 44.5342 34.3607 45.0697 33.0972C45.6055 31.8336 46.0515 30.7721 46.4088 29.9128C46.7665 29.0539 47.1234 28.2067 47.4804 27.3729C47.8377 26.5392 48.2201 25.6165 48.6282 24.6056C49.0363 23.5943 49.5853 22.2805 50.2738 20.6629L50.6129 19.8671H54.1585L38.3729 56.3734H36.9952L19.2395 14.4461C18.6275 13.0306 18.0535 11.8304 17.518 10.8447C16.9822 9.85929 16.3824 9.06275 15.7193 8.45649C15.0562 7.84987 14.3419 7.39526 13.5765 7.09124C12.811 6.78864 11.8925 6.58667 10.8213 6.48497V4.96878C11.0252 4.96878 11.4208 4.94362 12.0073 4.89295C12.5943 4.84264 13.0664 4.81677 13.4234 4.81677C14.3419 4.81677 15.3877 4.91847 16.5609 5.12044C17.7348 5.32276 18.9208 5.75221 20.1201 6.40915C21.3187 7.06608 22.4926 8.02668 23.6403 9.29059C24.7881 10.5541 25.8214 12.2727 26.7399 14.4461L39.8272 45.0003V45.0003Z" fill="black"/>
<path fill-rule="evenodd" clip-rule="evenodd" d="M63.5017 3.73462C67.5198 3.73462 70.7771 7.00299 70.7771 11.0357C70.7771 15.0676 67.5198 18.336 63.5017 18.336C59.4835 18.336 56.2266 15.0676 56.2266 11.0357C56.2266 7.00299 59.4835 3.73462 63.5017 3.73462V3.73462Z" fill="black"/>
</svg>
