<svg width="292" height="108" viewBox="0 0 292 108" fill="none" xmlns="http://www.w3.org/2000/svg">
<path fill-rule="evenodd" clip-rule="evenodd" d="M24.2158 5.7495C31.3723 3.43089 36.6549 4.38971 40.561 8.21566C44.8099 12.3771 52.8383 22.5619 56.3494 28.0683L51.6557 37.2577C41.9509 56.2569 44.4907 3.51508 24.2158 5.7495V5.7495Z" fill="#F6CAC9"/>
<path fill-rule="evenodd" clip-rule="evenodd" d="M24.1572 5.91188C29.6795 3.68171 34.066 4.83358 37.3694 7.43112C41.4565 10.6448 52.525 27.7004 54.8287 32.1199L51.0779 39.8739C51.0779 39.8739 41.9392 19.5923 38.0361 11.5598C35.4241 6.18359 30.52 5.21073 24.1572 5.91188V5.91188Z" fill="#F6CAC9"/>
<path fill-rule="evenodd" clip-rule="evenodd" d="M23.6836 5.75592C27.0605 4.66316 29.9556 4.87661 32.2347 5.74487C36.5279 7.38146 38.9404 11.7946 41.6191 16.8872L52.7991 35.6296L49.1589 41.3652C49.1589 41.3652 40.6516 20.9279 36.7486 12.8946C34.1365 7.51838 30.0464 5.05519 23.6836 5.75592Z" fill="#A2B8DF"/>
<path fill-rule="evenodd" clip-rule="evenodd" d="M205.98 18.324C208.37 18.324 210.387 18.5021 212.033 18.8585C213.679 19.2152 214.93 19.8164 215.786 20.6634C216.193 21.0648 216.52 21.5104 216.767 22.0003C217.015 22.4909 217.185 23.0701 217.274 23.7385C217.365 24.4069 217.421 25.1982 217.444 26.1115C217.467 27.0257 217.477 28.1061 217.477 29.3541H216.125C215.945 26.5014 215.032 24.3958 213.385 23.0369C211.741 21.6775 209.722 20.9976 207.333 20.9976C205.62 20.9976 204.154 21.3544 202.936 22.067C201.72 22.7805 200.704 23.7495 199.893 24.9754C199.081 26.2008 198.484 27.6495 198.101 29.3209C197.718 30.9915 197.526 32.7855 197.526 34.7018C197.526 36.6182 197.718 38.4121 198.101 40.0836C198.484 41.7546 199.081 43.2029 199.893 44.4287C200.704 45.6541 201.72 46.6236 202.936 47.3367C204.154 48.0497 205.62 48.4065 207.333 48.4065C209.722 48.4065 211.661 47.9383 213.149 47.0025C214.637 46.0666 215.967 44.7519 217.14 43.0583L218.492 44.0613C216.959 46.6015 215.167 48.4065 213.115 49.4758C211.064 50.5452 208.685 51.0805 205.98 51.0805C203.455 51.0805 201.257 50.6456 199.385 49.7765C197.515 48.9078 195.97 47.7376 194.753 46.2673C193.535 44.7965 192.623 43.0694 192.013 41.0862C191.404 39.1031 191.101 36.975 191.101 34.7018C191.101 32.4291 191.404 30.301 192.013 28.3179C192.623 26.3343 193.535 24.6076 194.753 23.1368C195.97 21.666 197.515 20.4963 199.385 19.6272C201.257 18.7585 203.455 18.324 205.98 18.324V18.324Z" fill="#A2B8DF"/>
<path fill-rule="evenodd" clip-rule="evenodd" d="M188.03 35.7793H167.537C167.537 37.6068 167.74 39.2999 168.146 40.86C168.552 42.4196 169.15 43.7679 169.939 44.9045C170.728 46.0406 171.685 46.9212 172.812 47.545C173.94 48.1688 175.224 48.4804 176.667 48.4804C178.877 48.4804 180.714 48.0127 182.18 47.0769C183.645 46.141 184.964 44.8263 186.136 43.1327L187.489 44.1353C185.956 46.6759 184.186 48.4804 182.18 49.5502C180.173 50.6196 177.885 51.1545 175.315 51.1545C172.925 51.1545 170.852 50.72 169.092 49.8513C167.334 48.9822 165.858 47.812 164.663 46.3417C163.468 44.8709 162.577 43.1438 161.991 41.1606C161.405 39.1775 161.112 37.0494 161.112 34.7767C161.112 32.5035 161.416 30.3754 162.025 28.3923C162.634 26.4091 163.524 24.682 164.696 23.2116C165.868 21.7409 167.289 20.5707 168.957 19.7016C170.626 18.8329 172.519 18.3979 174.638 18.3979C179.237 18.3979 182.642 19.6684 184.851 22.2086C187.06 24.7487 188.166 28.3812 188.166 33.1052L188.03 35.7793V35.7793ZM181.739 33.0312C181.739 29.1538 181.154 26.1791 179.981 24.1067C178.81 22.0343 177.028 20.998 174.638 20.998C173.602 20.998 172.654 21.2991 171.798 21.9007C170.941 22.502 170.198 23.3379 169.566 24.4073C168.935 25.4771 168.438 26.7476 168.078 28.2179C167.717 29.6887 167.537 31.2934 167.537 33.0312H181.739V33.0312Z" fill="#A2B8DF"/>
<path fill-rule="evenodd" clip-rule="evenodd" d="M145.289 21.6664H140.555V18.9928H145.289V12.9762L148.671 8.96484H151.376V18.9928H159.492V21.6664H151.376V42.3898C151.376 46.4007 152.955 48.4064 156.11 48.4064C157.283 48.4064 158.252 48.2729 159.018 48.0054C159.785 47.738 160.507 47.4263 161.184 47.0696L161.859 48.4064C161.498 48.6743 161.081 48.9639 160.608 49.2755C160.135 49.5876 159.559 49.8772 158.883 50.1446C158.207 50.4121 157.418 50.6349 156.517 50.8135C155.614 50.9912 154.577 51.0805 153.405 51.0805C151.015 51.0805 149.066 50.3895 147.555 49.0085C146.045 47.6266 145.289 45.4207 145.289 42.3898V21.6664V21.6664Z" fill="#A2B8DF"/>
<path fill-rule="evenodd" clip-rule="evenodd" d="M136.948 50.4116H133.566L131.199 47.7375H130.861C130.004 48.5841 128.832 49.3533 127.344 50.0438C125.856 50.7343 124.098 51.08 122.069 51.08C120.626 51.08 119.217 50.9134 117.841 50.5787C116.466 50.2445 115.238 49.6208 114.155 48.707C113.073 47.7932 112.205 46.5563 111.552 44.9967C110.898 43.4371 110.571 41.4535 110.571 39.0473V27.0137C110.571 25.0085 110.289 23.3927 109.725 22.1673C109.162 20.9419 107.866 20.3291 105.836 20.3291H105.16V18.9923H110.571C111.743 18.9923 112.724 19.0927 113.513 19.2929C114.302 19.4936 114.933 19.8946 115.407 20.4962C115.88 21.0975 116.207 21.9224 116.387 22.9701C116.568 24.0169 116.658 25.3652 116.658 27.0137V39.0473C116.658 40.7409 116.872 42.1559 117.3 43.2921C117.729 44.4282 118.292 45.3534 118.991 46.0661C119.69 46.7796 120.479 47.2919 121.358 47.604C122.238 47.9157 123.151 48.0717 124.098 48.0717C125.45 48.0717 126.701 47.7154 127.851 47.0024C129.001 46.2893 130.004 45.4648 130.861 44.5286V18.9923H136.948V50.4116V50.4116Z" fill="#A2B8DF"/>
<path fill-rule="evenodd" clip-rule="evenodd" d="M104.687 42.3899C104.687 43.8156 104.382 45.064 103.774 46.1333C103.165 47.2031 102.342 48.1054 101.305 48.841C100.268 49.5762 99.0166 50.1332 97.551 50.5121C96.0862 50.8909 94.5191 51.0805 92.8509 51.0805C90.1459 51.0805 87.9365 50.8463 86.2226 50.3785C84.5097 49.9104 83.2243 49.253 82.3678 48.4065C81.5113 47.5595 81.0149 46.6015 80.8798 45.5317C80.7447 44.4623 80.6768 43.0804 80.6768 41.3868H82.0297C82.3906 43.5707 83.337 45.2868 84.8702 46.5347C86.4033 47.7823 88.6127 48.4065 91.4984 48.4065C94.0683 48.4065 95.9507 47.9604 97.1454 47.0692C98.3404 46.1776 98.9379 45.064 98.9379 43.7271C98.9379 42.3899 98.4307 41.2644 97.4164 40.351C96.4016 39.4373 94.88 38.5571 92.8509 37.7106L88.793 36.0391C86.2226 35.0139 84.2275 33.7996 82.8074 32.3956C81.387 30.9915 80.6768 29.198 80.6768 27.0142C80.6768 25.5881 80.9585 24.3401 81.5221 23.2708C82.086 22.2009 82.8638 21.2987 83.8554 20.5635C84.8478 19.8279 86.0196 19.2709 87.3725 18.892C88.7254 18.5128 90.213 18.324 91.8365 18.324C94.4064 18.324 96.5255 18.5578 98.1941 19.0256C99.8624 19.4937 101.125 20.1511 101.981 20.9976C102.838 21.8446 103.334 22.803 103.469 23.8724C103.605 24.9418 103.672 26.3233 103.672 28.0168H102.32C101.959 25.833 101.023 24.1173 99.5131 22.8698C98.0023 21.6218 95.8944 20.9976 93.189 20.9976C90.98 20.9976 89.3001 21.4432 88.1503 22.3349C87.0008 23.2261 86.4261 24.3401 86.4261 25.6774C86.4261 26.8356 86.8993 27.8944 87.8461 28.8528C88.793 29.8108 90.1231 30.6463 91.8365 31.3593L95.8944 33.0304C98.78 34.1895 100.967 35.46 102.455 36.841C103.943 38.2229 104.687 40.0725 104.687 42.3899V42.3899Z" fill="#A2B8DF"/>
<path fill-rule="evenodd" clip-rule="evenodd" d="M76.1682 50.4116H70.0812V27.0137C70.0812 25.0085 69.7994 23.3927 69.2359 22.1673C68.6719 20.9419 67.3762 20.3291 65.3471 20.3291H63.9941V18.9923H70.0812C71.2539 18.9923 72.2342 19.0927 73.0236 19.2929C73.8126 19.4936 74.4437 19.8946 74.9169 20.4962C75.3905 21.0975 75.7174 21.9224 75.8977 22.9701C76.0783 24.0169 76.1682 25.3652 76.1682 27.0137V50.4116V50.4116Z" fill="#A2B8DF"/>
<path fill-rule="evenodd" clip-rule="evenodd" d="M49.1586 41.0535C50.2856 38.4687 51.2213 36.352 51.9651 34.7027C52.7093 33.0537 53.318 31.6723 53.7916 30.5582C54.2648 29.4442 54.6593 28.5079 54.9746 27.7506C55.2908 26.9929 55.6061 26.2463 55.9219 25.5111C56.2376 24.7759 56.5757 23.9621 56.9362 23.0709C57.2967 22.1792 57.782 21.021 58.3902 19.5945L58.6901 18.8929H61.8235L47.8732 51.0814H46.6558L30.9649 14.1132C30.4238 12.8652 29.917 11.8069 29.4434 10.9374C28.9702 10.0687 28.4402 9.36669 27.8539 8.83179C27.268 8.29731 26.6369 7.89592 25.9602 7.62847C25.284 7.36145 24.4722 7.18329 23.5254 7.09357V5.75674C23.7056 5.75674 24.0549 5.73463 24.5737 5.68998C25.0925 5.64534 25.5094 5.6228 25.8251 5.6228C26.6369 5.6228 27.5609 5.71252 28.5976 5.89068C29.6352 6.06884 30.6832 6.44769 31.7431 7.02681C32.8022 7.60594 33.8398 8.45293 34.8538 9.56738C35.8681 10.6814 36.7814 12.1968 37.5932 14.1132L49.1586 41.0535Z" fill="#A2B8DF"/>
<path fill-rule="evenodd" clip-rule="evenodd" d="M70.0804 4.6687C73.6316 4.6687 76.5099 7.55028 76.5099 11.1058C76.5099 14.6613 73.6316 17.5429 70.0804 17.5429C66.5297 17.5429 63.6514 14.6613 63.6514 11.1058C63.6514 7.55028 66.5297 4.6687 70.0804 4.6687V4.6687Z" fill="#A2B8DF"/>
<path d="M169.223 63.4938C169.027 63.618 168.902 63.7145 168.832 63.7834C167.281 65.3991 166.038 67.2632 165.088 69.3756C164.85 69.859 164.683 70.3561 164.571 70.8391C164.445 71.3226 164.417 71.8473 164.487 72.3996C164.557 73.2143 164.837 73.7943 165.312 74.1531C165.786 74.512 166.429 74.5949 167.253 74.4015C167.812 74.2361 168.343 74.029 168.832 73.7666C169.32 73.5043 169.824 73.2143 170.312 72.8826C171.556 72.0684 172.715 71.1708 173.763 70.1626C174.811 69.1545 175.83 68.1055 176.808 67.0008C177.046 66.7385 177.269 66.4485 177.507 66.1585C177.73 65.8685 177.954 65.6062 178.191 65.3438C178.457 65.0815 178.652 64.9021 178.792 64.8051C179.183 64.5704 179.56 64.6121 179.923 64.9021C180.314 65.2197 180.385 65.5922 180.119 66.0203C180.049 66.1445 179.979 66.2827 179.882 66.4068C179.784 66.5314 179.672 66.6556 179.574 66.7521C178.848 67.4979 178.135 68.2297 177.437 68.9614C176.725 69.6932 176.012 70.4386 175.286 71.1844C174.406 72.0544 173.456 72.855 172.464 73.5872C171.458 74.319 170.41 74.9955 169.32 75.6167C168.106 76.266 166.862 76.5419 165.577 76.445C163.942 76.3484 162.769 75.5478 162.084 74.0566C161.652 73.145 161.428 72.2202 161.414 71.2949C161.4 70.3697 161.54 69.4445 161.833 68.5056C162.56 66.4621 163.565 64.6257 164.837 62.9967C165.269 62.444 165.716 61.9193 166.177 61.4363C166.639 60.9528 167.086 60.4834 167.546 60.028C167.952 59.6411 168.413 59.3234 168.929 59.0611C169.363 58.8264 169.782 58.7162 170.215 58.7299C170.648 58.7439 171.053 58.9093 171.444 59.1993C171.835 59.4893 172.086 59.8481 172.185 60.2487C172.282 60.6492 172.296 61.091 172.226 61.5468C172.101 62.3198 171.738 63.0516 171.151 63.7285C170.69 64.2532 170.159 64.2668 169.572 63.7834C169.502 63.7145 169.446 63.6728 169.405 63.6316C169.349 63.6039 169.293 63.5627 169.223 63.4938V63.4938ZM179.965 68.1604C180.594 67.5808 181.195 66.9868 181.795 66.3792C182.382 65.7856 182.983 65.192 183.611 64.6121C184.045 64.2115 184.464 63.8386 184.897 63.4798C185.33 63.1345 185.763 62.7756 186.224 62.4163C186.322 62.3475 186.433 62.2786 186.531 62.1957C186.629 62.1127 186.741 62.0439 186.866 61.9746C187.327 61.7122 187.774 61.6846 188.207 61.878C188.626 62.0715 188.92 62.4304 189.087 62.9551C189.185 63.4105 189.185 63.8663 189.087 64.3221C189.017 64.7086 188.948 65.1091 188.864 65.5097C188.78 65.9098 188.696 66.3103 188.598 66.6968C188.431 67.3461 188.445 68.0638 188.64 68.8509C188.766 69.3067 189.073 69.5138 189.535 69.4861C190.652 69.3896 191.685 68.9474 192.636 68.1604C193.152 67.705 193.669 67.2632 194.158 66.8214C194.647 66.3932 195.15 65.9374 195.639 65.482C195.807 65.3298 195.988 65.178 196.17 65.0262C196.352 64.8744 196.533 64.7503 196.728 64.6533C197.078 64.4603 197.413 64.5292 197.707 64.8468C198 65.178 198.028 65.5233 197.762 65.8685C197.665 66.0344 197.553 66.1721 197.441 66.2827C197.315 66.4068 197.19 66.5314 197.064 66.6556C196.408 67.1663 195.765 67.6909 195.122 68.202C194.479 68.7267 193.837 69.2374 193.18 69.7209C192.817 69.9832 192.454 70.2179 192.077 70.425C191.7 70.6321 191.309 70.8391 190.903 71.0326C190.638 71.1708 190.373 71.2673 190.079 71.3086C189.786 71.3502 189.492 71.3915 189.227 71.4331C188.543 71.502 187.942 71.3779 187.439 71.0879C186.922 70.7979 186.545 70.3285 186.279 69.6792C186.112 69.2791 185.986 68.8785 185.888 68.4504C185.791 68.0362 185.679 67.6221 185.581 67.1939C185.553 66.9592 185.539 66.7385 185.539 66.5314C185.539 66.3244 185.525 66.0892 185.483 65.8269C185.357 65.8962 185.218 65.9515 185.092 65.9927C184.966 66.048 184.868 66.1033 184.799 66.1721C184.282 66.6832 183.751 67.1939 183.234 67.6773C182.703 68.1604 182.2 68.6851 181.739 69.2374C180.86 70.2732 180.007 71.3502 179.183 72.4549C178.359 73.5596 177.604 74.6778 176.906 75.8101C176.71 76.169 176.501 76.4726 176.277 76.7354C175.872 77.1355 175.453 77.2324 174.992 77.0254C174.503 76.8319 174.252 76.4726 174.252 75.9619C174.252 75.6031 174.308 75.2438 174.406 74.8849C174.964 72.8414 175.565 70.8255 176.193 68.8373C176.836 66.8627 177.619 64.9021 178.54 62.9551C178.806 62.4027 179.127 61.8368 179.518 61.2428C179.728 60.9528 180.035 60.7045 180.468 60.4698C180.817 60.3039 181.167 60.318 181.516 60.511C181.865 60.7181 182.061 61.0081 182.131 61.3946C182.2 61.6569 182.215 61.9193 182.172 62.1957C182.117 62.4716 182.033 62.7616 181.935 63.0516C181.67 63.6316 181.418 64.2115 181.181 64.7915C180.929 65.3851 180.678 65.9651 180.413 66.5591C180.314 66.8214 180.217 67.0697 180.119 67.3321C180.021 67.5944 179.923 67.8568 179.826 68.1191C179.854 68.1191 179.882 68.1191 179.895 68.1327C179.909 68.1468 179.937 68.1604 179.965 68.1604V68.1604ZM202.973 70.0661C202.75 70.3285 202.554 70.5355 202.386 70.715C202.219 70.8944 202.051 71.0738 201.897 71.2397C201.339 71.7508 200.78 72.2755 200.221 72.8138C199.662 73.3525 199.089 73.8632 198.489 74.3466C198.223 74.5813 197.944 74.7607 197.651 74.9125C197.357 75.0643 197.064 75.1749 196.771 75.2714C196.142 75.4785 195.583 75.4509 195.066 75.2025C194.55 74.9678 194.172 74.5673 193.907 74.0149C193.781 73.7526 193.669 73.4626 193.586 73.145C193.502 72.8414 193.46 72.5514 193.46 72.2614C193.39 71.2261 193.46 70.2596 193.655 69.3756C193.893 68.202 194.256 67.0974 194.745 66.062C195.234 65.0262 195.835 64.0457 196.519 63.0933C197.343 62.0298 198.293 61.1599 199.383 60.511C200.207 59.9587 201.073 59.6827 201.995 59.6827C203.532 59.7516 204.538 60.511 204.999 61.9333C205.236 62.748 205.278 63.5486 205.138 64.3633C205.068 64.598 205.04 64.8051 205.027 64.9986C205.012 65.192 204.971 65.3991 204.901 65.6338C205.459 65.9927 205.823 66.4209 205.991 66.9179C206.144 67.4286 206.242 67.9673 206.284 68.5609C206.312 69.2374 206.41 69.9556 206.577 70.7014C206.675 71.1844 206.982 71.3779 207.513 71.2813C207.778 71.212 208.03 71.1568 208.281 71.0879C208.519 71.019 208.756 70.9084 208.994 70.7426C209.385 70.4803 209.776 70.2039 210.181 69.9143C210.573 69.6243 210.936 69.3067 211.257 68.9474C211.69 68.5473 212.067 68.1327 212.388 67.6773C212.71 67.2215 213.059 66.7938 213.422 66.3656C213.687 66.0756 213.953 65.7856 214.232 65.5097C214.512 65.2333 214.791 64.9709 215.057 64.7086C215.126 64.6397 215.238 64.6121 215.406 64.6121C215.56 64.6121 215.671 64.6397 215.741 64.7086C215.839 64.7779 215.923 64.8744 215.992 64.9986C216.062 65.1227 216.076 65.2473 216.035 65.3438C216.007 65.9651 215.741 66.5591 215.252 67.1386C214.596 67.9809 213.897 68.8096 213.157 69.6243C212.416 70.4386 211.592 71.1708 210.712 71.8196C210.349 72.1096 209.958 72.3856 209.539 72.6479C209.106 72.9103 208.659 73.1174 208.197 73.2832C207.248 73.6697 206.395 73.7114 205.641 73.4214C204.887 73.1314 204.258 72.5378 203.769 71.6262C203.644 71.3915 203.518 71.1708 203.406 70.9361C203.281 70.715 203.141 70.425 202.973 70.0661V70.0661ZM201.842 63.1485C200.92 63.6039 200.179 64.1703 199.62 64.8468C199.061 65.5233 198.558 66.255 198.098 67.0421C197.637 67.8844 197.246 68.768 196.896 69.6656C196.547 70.5768 196.421 71.5437 196.519 72.5514C196.784 72.6203 197.008 72.5791 197.19 72.4549C197.371 72.3307 197.539 72.2062 197.707 72.1096C199.704 70.5219 201.38 68.6991 202.735 66.6556C202.568 66.3932 202.47 66.1169 202.456 65.8269C202.442 65.5373 202.428 65.2333 202.428 64.9433C202.428 64.6533 202.386 64.3633 202.316 64.0457C202.233 63.7421 202.079 63.4381 201.842 63.1485V63.1485ZM214.456 71.0326C214.624 71.005 214.763 70.9914 214.875 71.005C214.987 71.019 215.098 71.005 215.196 70.9361C216.873 70.3837 218.535 69.7897 220.183 69.1545C221.818 68.5333 223.396 67.7326 224.905 66.7521C225.268 66.5174 225.603 66.2967 225.925 66.062C226.232 65.8409 226.567 65.6062 226.931 65.3438C227.084 65.2197 227.238 65.0951 227.364 64.9709C227.489 64.8604 227.643 64.7779 227.811 64.7086C228.272 64.5156 228.677 64.6121 229.04 64.9986C229.445 65.3851 229.501 65.8133 229.235 66.2691C229.082 66.4209 228.914 66.5867 228.747 66.7661C228.579 66.9456 228.397 67.0974 228.202 67.1939C226.959 67.898 225.715 68.5885 224.486 69.2514C223.257 69.9279 221.971 70.5355 220.616 71.0879C220.058 71.3226 219.499 71.5297 218.94 71.7231C218.381 71.9162 217.822 72.1373 217.264 72.3996L216.384 72.8414C216.384 72.9103 216.37 72.9519 216.356 72.9796C216.342 73.0208 216.328 73.0485 216.328 73.0901C216.719 74.029 216.9 74.9814 216.873 75.9619C216.831 76.9425 216.719 77.8949 216.523 78.8342C216.286 79.9384 216.048 81.0295 215.811 82.1065C215.573 83.1695 215.294 84.2329 215.001 85.2683C214.246 87.9883 213.296 90.6118 212.165 93.1111C211.033 95.6104 209.706 98.0545 208.197 100.457C207.834 101.078 207.429 101.658 206.968 102.21C206.801 102.376 206.633 102.542 206.465 102.707C206.312 102.859 206.13 103.011 205.934 103.136C205.376 103.495 204.831 103.591 204.3 103.412C203.783 103.232 203.42 102.818 203.225 102.169C202.987 101.382 202.931 100.526 203.029 99.5869C203.154 98.3168 203.322 97.0604 203.532 95.8311C203.741 94.6023 203.993 93.3599 204.258 92.131C204.845 89.2724 205.585 86.4971 206.465 83.7771C207.359 81.0571 208.296 78.3367 209.287 75.6167C209.357 75.4509 209.413 75.2854 209.483 75.106C209.553 74.9262 209.608 74.7467 209.678 74.5396C209.581 74.4155 209.469 74.2773 209.343 74.1531C209.231 74.029 209.147 73.8768 209.078 73.7114C208.812 73.2555 208.756 72.8278 208.882 72.3996C209.008 71.9714 209.315 71.6402 209.776 71.3779C209.972 71.3085 210.167 71.2537 210.363 71.1844C210.558 71.1155 210.768 71.0602 211.005 70.9914C211.075 70.7979 211.145 70.6044 211.229 70.425C211.313 70.2456 211.383 70.0661 211.453 69.8727C212.794 66.4898 214.232 63.1898 215.769 59.9587C217.291 56.728 218.94 53.5246 220.714 50.3347C221.147 49.5893 221.608 48.8571 222.125 48.1394C222.628 47.4353 223.131 46.7035 223.62 45.9577C223.913 45.5571 224.318 45.157 224.807 44.7289C225.073 44.5354 225.38 44.356 225.743 44.2042C226.302 43.9971 226.777 44.0524 227.168 44.3424C227.559 44.6323 227.741 45.0741 227.713 45.6541C227.671 46.1371 227.545 46.6759 227.322 47.2694C226.959 48.4706 226.54 49.6306 226.065 50.7629C225.59 51.9088 225.073 53.0275 224.514 54.1317C223.69 55.7611 222.824 57.3352 221.916 58.854C221.007 60.3869 219.988 61.878 218.842 63.3416C218.577 63.6316 218.325 63.9215 218.088 64.1979C217.837 64.4739 217.529 64.695 217.166 64.8468C216.928 64.9433 216.747 65.1227 216.621 65.3851C216.258 66.2274 215.895 67.0838 215.545 67.9397C215.182 68.8096 214.819 69.6656 214.456 70.5079C214.414 70.5768 214.414 70.6461 214.428 70.715C214.442 70.7979 214.456 70.9084 214.456 71.0326V71.0326ZM219.876 57.8875C220.072 57.9568 220.225 57.9292 220.351 57.8323C220.463 57.7357 220.547 57.6116 220.616 57.4458C221.203 56.4657 221.79 55.4851 222.362 54.477C222.935 53.4693 223.438 52.4335 223.871 51.3565C223.941 51.2599 223.983 51.1634 223.997 51.0388C224.011 50.9287 224.039 50.8041 224.109 50.68C223.844 50.8318 223.648 51.0112 223.522 51.2047C223.396 51.4117 223.257 51.6188 223.131 51.8399C222.67 52.6822 222.209 53.5522 221.776 54.4217C221.329 55.3057 220.882 56.1893 220.421 57.0592C220.351 57.2251 220.267 57.3769 220.155 57.501C220.03 57.6252 219.946 57.7634 219.876 57.8875V58.081V57.8875ZM205.683 99.7251C205.753 99.7664 205.795 99.7804 205.823 99.7804C205.865 99.7804 205.906 99.794 205.976 99.8216C206.046 99.7251 206.116 99.6422 206.214 99.5457C206.312 99.4487 206.395 99.3386 206.465 99.2417C206.829 98.6893 207.178 98.137 207.499 97.571C207.834 97.0051 208.184 96.4251 208.547 95.8311C210.083 93.1388 211.285 90.3635 212.151 87.5053C213.031 84.6471 213.632 81.6919 213.967 78.6407C214.065 77.7707 213.995 76.9561 213.771 76.1967C213.73 76.0449 213.687 75.8931 213.618 75.7689C213.548 75.6443 213.492 75.5061 213.422 75.3684C213.324 75.2161 213.157 75.1337 212.933 75.1337C212.863 75.092 212.794 75.106 212.724 75.1749C212.654 75.2438 212.612 75.2991 212.584 75.3684C212.416 75.7272 212.263 76.1001 212.137 76.4726C212.011 76.8455 211.872 77.2044 211.746 77.5637C210.558 80.7531 209.483 83.943 208.519 87.16C207.555 90.3771 206.759 93.6498 206.13 97.0051C206.06 97.4605 205.99 97.9163 205.906 98.3721C205.823 98.8275 205.753 99.2693 205.683 99.7251V99.7251ZM231.303 52.4752C230.591 52.5164 229.92 52.5304 229.319 52.544C228.705 52.5576 228.104 52.5993 227.517 52.6682C226.917 52.7375 226.316 52.7924 225.715 52.82C225.115 52.8617 224.514 52.9029 223.913 52.9722C223.718 52.9722 223.508 52.9722 223.299 52.9722C223.089 52.9722 222.88 52.9582 222.684 52.9169C222.293 52.8476 221.986 52.6682 221.748 52.3506C221.511 52.047 221.399 51.7157 221.399 51.3565C221.399 51.0388 221.497 50.7352 221.692 50.4593C221.902 50.1829 222.181 49.9758 222.53 49.8517C222.935 49.7547 223.34 49.6999 223.773 49.6999C225.045 49.6306 226.316 49.5753 227.587 49.534C228.859 49.4924 230.13 49.4371 231.401 49.3682C231.666 49.3682 231.96 49.3682 232.253 49.3682C232.546 49.3682 232.854 49.3542 233.175 49.3129C233.342 49.0506 233.496 48.8159 233.65 48.6088C233.804 48.4017 233.943 48.167 234.069 47.9047C234.781 46.7035 235.536 45.5295 236.332 44.3836C237.128 43.2513 237.966 42.1466 238.847 41.0836C239.014 40.8213 239.196 40.6002 239.391 40.3931C239.587 40.2001 239.783 39.993 239.978 39.7719C240.271 39.4819 240.551 39.2608 240.816 39.1366C241.054 39.0125 241.278 38.9296 241.515 38.9159C241.738 38.9019 241.948 38.9712 242.143 39.1366C242.702 39.4543 242.898 39.896 242.744 40.4484C242.618 41.0696 242.381 41.7465 242.046 42.4919C241.585 43.4312 241.123 44.37 240.649 45.3088C240.174 46.2617 239.699 47.2006 239.238 48.1394C239.168 48.3052 239.098 48.4706 239.028 48.6224C238.944 48.7882 238.875 49.0094 238.805 49.2717C239.07 49.2717 239.28 49.2853 239.447 49.3129C239.601 49.3542 239.768 49.3542 239.936 49.3129C241.808 49.3129 243.652 49.2993 245.482 49.2577C247.298 49.23 249.142 49.2164 251.014 49.2164C253.095 49.1748 255.149 49.1471 257.189 49.1335C259.214 49.1195 261.268 49.1335 263.335 49.1611C263.894 49.1611 264.466 49.2164 265.039 49.3129C265.612 49.4095 266.185 49.4924 266.744 49.5617C267.037 49.6306 267.33 49.7271 267.624 49.8517C267.791 49.9206 267.861 50.0724 267.847 50.3071C267.833 50.5558 267.735 50.7076 267.582 50.7765C267.316 50.9011 267.079 50.9699 266.841 50.9699C266.017 51.0112 265.207 51.0252 264.383 51.0388C263.559 51.0529 262.72 51.0665 261.868 51.0665C260.709 51.1081 259.549 51.1217 258.362 51.1217C257.174 51.1217 256.015 51.1494 254.869 51.2187C252.467 51.3152 250.078 51.4258 247.703 51.5499C245.314 51.6741 242.926 51.8123 240.523 51.9505C239.964 51.9781 239.405 52.0057 238.833 52.0329C238.26 52.0746 237.687 52.1159 237.128 52.1852C236.667 52.9999 236.207 53.7869 235.773 54.5463C235.326 55.3057 234.893 56.0651 234.46 56.8105C234.027 57.5287 233.608 58.2328 233.203 58.9369C232.798 59.6411 232.393 60.3592 232.002 61.1046C231.834 61.3669 231.694 61.6157 231.583 61.8504C231.457 62.0991 231.303 62.3198 231.108 62.5133C230.646 62.9967 230.311 63.521 230.102 64.0874C229.892 64.6533 229.697 65.2333 229.529 65.8269C229.306 66.6139 229.096 67.3733 228.9 68.1327C228.691 68.8926 228.509 69.6656 228.356 70.4526C228.258 71.005 228.216 71.5437 228.23 72.0544C228.244 72.579 228.342 73.1174 228.495 73.6697C228.663 74.1255 228.97 74.3049 229.431 74.2084C229.962 74.1391 230.437 74.0013 230.87 73.7666C231.289 73.5319 231.694 73.2832 232.099 72.9932C233.44 72.0407 234.684 70.9914 235.815 69.845C236.947 68.6991 238.05 67.4703 239.098 66.1721C239.252 65.9651 239.433 65.758 239.615 65.5233C239.796 65.3026 239.978 65.0951 240.174 64.9021C240.509 64.5428 240.844 64.4879 241.166 64.7503C241.487 65.0402 241.585 65.3574 241.459 65.6751C241.361 65.9374 241.221 66.2138 241.068 66.5038C238.539 69.6932 235.732 72.5654 232.644 75.1337C232.113 75.5614 231.555 75.9067 230.968 76.1826C230.367 76.459 229.753 76.6248 229.096 76.6937C227.908 76.8872 226.903 76.4726 226.078 75.4649C225.785 75.0784 225.575 74.6502 225.422 74.1808C225.268 73.7114 225.17 73.2279 225.101 72.7449C225.003 71.8332 224.989 70.9361 225.087 70.0661C225.184 69.1962 225.338 68.2986 225.548 67.3874C225.841 66.0892 226.218 64.8191 226.679 63.5627C227.14 62.3062 227.615 61.0497 228.104 59.7933C228.537 58.7575 228.984 57.7221 229.445 56.6863C229.906 55.6646 230.353 54.6288 230.814 53.5934C230.884 53.4416 230.94 53.2898 231.01 53.1376C231.08 52.9858 231.177 52.7651 231.303 52.4752V52.4752ZM243.582 57.791C244.239 57.7221 244.742 57.9152 245.105 58.371C245.468 58.8264 245.566 59.3651 245.398 59.9863C245.329 60.1381 245.259 60.3039 245.175 60.4698C245.091 60.6352 245.007 60.801 244.91 60.9528C244.616 61.4086 244.337 61.878 244.071 62.3475C243.806 62.8169 243.512 63.2727 243.177 63.7285C242.786 64.2532 242.716 64.8191 242.981 65.4404C243.08 65.7027 243.191 65.9374 243.303 66.1445C243.415 66.3516 243.526 66.5867 243.624 66.8486C244.085 67.7879 244.406 68.7544 244.588 69.7625C244.77 70.7702 244.826 71.806 244.756 72.8414C244.756 73.5596 244.574 74.2361 244.211 74.8849C243.75 75.7549 243.121 76.3348 242.297 76.5972C241.445 76.8872 240.607 76.9977 239.783 76.9284C238.958 76.8595 238.19 76.5143 237.464 75.8654C237.142 75.5754 236.807 75.2714 236.472 74.9538C236.151 74.6502 235.857 74.3049 235.592 73.9184C235.131 73.159 234.893 72.4961 234.879 71.9026C234.865 71.3226 234.879 70.9361 234.949 70.7426C235.117 70.1903 235.368 69.7209 235.717 69.348C236.067 68.9751 236.444 68.8649 236.877 68.9891C237.031 69.058 237.142 69.2098 237.184 69.4445C237.24 69.6932 237.254 69.9696 237.24 70.2596C237.226 70.5491 237.198 70.8391 237.156 71.1291C237.128 71.4191 237.142 71.6538 237.212 71.8196C237.506 72.372 237.883 72.8138 238.316 73.1314C238.763 73.449 239.224 73.725 239.685 73.9597C240.341 74.2497 240.872 74.2361 241.305 73.8908C241.738 73.5455 241.92 73.0349 241.85 72.3579C241.822 72.2891 241.808 72.1649 241.808 71.9855C241.808 71.806 241.794 71.6955 241.752 71.6262C241.626 71.1431 241.515 70.7014 241.417 70.3285C241.319 69.9556 241.166 69.5414 240.97 69.0856C240.76 68.6302 240.579 68.2156 240.397 67.8432C240.216 67.4703 240.062 67.0838 239.908 66.6832C239.755 66.2827 239.615 65.8269 239.461 65.3438C239.308 64.8604 239.182 64.2668 239.084 63.5903C238.93 62.4163 239.14 61.4086 239.74 60.5387C240.327 59.6827 241.082 58.9233 242.004 58.2745C242.227 58.1222 242.479 57.9981 242.758 57.9292C243.037 57.8599 243.317 57.8187 243.582 57.791V57.791Z" fill="#A2B8DF"/>
</svg>
